<svg width="64" height="64" viewBox="0 0 100 100" xmlns="http://www.w3.org/2000/svg">
  <rect width="100" height="100" fill="#050508" rx="14" ry="14"/>
  <defs>
    <path id="rose" d="M94.00 50.00 L93.81 51.53 L93.23 53.02 L92.27 54.44 L90.94 55.75 L89.27 56.92 L87.27 57.92 L84.97 58.72 L82.40 59.29 L79.59 59.61 L76.58 59.67 L73.40 59.45 L70.10 58.95 L66.71 58.15 L63.29 57.07 L59.86 55.69 L56.48 54.05 L53.18 52.14 L50.00 50.00 L46.98 47.64 L44.15 45.09 L41.54 42.38 L39.17 39.55 L37.08 36.62 L35.28 33.65 L33.78 30.67 L32.59 27.71 L31.71 24.83 L31.15 22.06 L30.90 19.43 L30.95 17.00 L31.28 14.79 L31.87 12.84 L32.71 11.17 L33.77 9.82 L35.01 8.81 L36.40 8.15 L37.92 7.87 L39.52 7.96 L41.16 8.43 L42.82 9.28 L44.45 10.51 L46.02 12.10 L47.49 14.05 L48.82 16.31 L50.00 18.89 L50.99 21.73 L51.76 24.82 L52.30 28.12 L52.59 31.59 L52.61 35.18 L52.37 38.86 L51.85 42.59 L51.06 46.31 L50.00 50.00 L48.69 53.60 L47.14 57.08 L45.37 60.40 L43.40 63.53 L41.27 66.42 L39.00 69.05 L36.63 71.40 L34.18 73.45 L31.71 75.17 L29.25 76.56 L26.83 77.61 L24.50 78.32 L22.30 78.69 L20.26 78.72 L18.42 78.44 L16.81 77.85 L15.46 76.99 L14.40 75.86 L13.66 74.51 L13.25 72.96 L13.19 71.25 L13.49 69.41 L14.16 67.48 L15.19 65.50 L16.58 63.50 L18.33 61.53 L20.41 59.61 L22.81 57.80 L25.51 56.11 L28.48 54.57 L31.69 53.23 L35.10 52.09 L38.67 51.19 L42.38 50.53 L46.17 50.13 L50.00 50.00 L53.83 50.13 L57.62 50.53 L61.33 51.19 L64.90 52.09 L68.31 53.23 L71.52 54.57 L74.49 56.11 L77.19 57.80 L79.59 59.61 L81.67 61.53 L83.42 63.50 L84.81 65.50 L85.84 67.48 L86.51 69.41 L86.81 71.25 L86.75 72.96 L86.34 74.51 L85.60 75.86 L84.54 76.99 L83.19 77.85 L81.58 78.44 L79.74 78.72 L77.70 78.69 L75.50 78.32 L73.17 77.61 L70.75 76.56 L68.29 75.17 L65.82 73.45 L63.37 71.40 L61.00 69.05 L58.73 66.42 L56.60 63.53 L54.63 60.40 L52.86 57.08 L51.31 53.60 L50.00 50.00 L48.94 46.31 L48.15 42.59 L47.63 38.86 L47.39 35.18 L47.41 31.59 L47.70 28.12 L48.24 24.82 L49.01 21.73 L50.00 18.89 L51.18 16.31 L52.51 14.05 L53.98 12.10 L55.55 10.51 L57.18 9.28 L58.84 8.43 L60.48 7.96 L62.08 7.87 L63.60 8.15 L64.99 8.81 L66.23 9.82 L67.29 11.17 L68.13 12.84 L68.72 14.79 L69.05 17.00 L69.10 19.43 L68.85 22.06 L68.29 24.83 L67.41 27.71 L66.22 30.67 L64.72 33.65 L62.92 36.62 L60.83 39.55 L58.46 42.38 L55.85 45.09 L53.02 47.64 L50.00 50.00 L46.82 52.14 L43.52 54.05 L40.14 55.69 L36.71 57.07 L33.29 58.15 L29.90 58.95 L26.60 59.45 L23.42 59.67 L20.41 59.61 L17.60 59.29 L15.03 58.72 L12.73 57.92 L10.73 56.92 L9.06 55.75 L7.73 54.44 L6.77 53.02 L6.19 51.53 L6.00 50.00 L6.19 48.47 L6.77 46.98 L7.73 45.56 L9.06 44.25 L10.73 43.08 L12.73 42.08 L15.03 41.28 L17.60 40.71 L20.41 40.39 L23.42 40.33 L26.60 40.55 L29.90 41.05 L33.29 41.85 L36.71 42.93 L40.14 44.31 L43.52 45.95 L46.82 47.86 L50.00 50.00 L53.02 52.36 L55.85 54.91 L58.46 57.62 L60.83 60.45 L62.92 63.38 L64.72 66.35 L66.22 69.33 L67.41 72.29 L68.29 75.17 L68.85 77.94 L69.10 80.57 L69.05 83.00 L68.72 85.21 L68.13 87.16 L67.29 88.83 L66.23 90.18 L64.99 91.19 L63.60 91.85 L62.08 92.13 L60.48 92.04 L58.84 91.57 L57.18 90.72 L55.55 89.49 L53.98 87.90 L52.51 85.95 L51.18 83.69 L50.00 81.11 L49.01 78.27 L48.24 75.18 L47.70 71.88 L47.41 68.41 L47.39 64.82 L47.63 61.14 L48.15 57.41 L48.94 53.69 L50.00 50.00 L51.31 46.40 L52.86 42.92 L54.63 39.60 L56.60 36.47 L58.73 33.58 L61.00 30.95 L63.37 28.60 L65.82 26.55 L68.29 24.83 L70.75 23.44 L73.17 22.39 L75.50 21.68 L77.70 21.31 L79.74 21.28 L81.58 21.56 L83.19 22.15 L84.54 23.01 L85.60 24.14 L86.34 25.49 L86.75 27.04 L86.81 28.75 L86.51 30.59 L85.84 32.52 L84.81 34.50 L83.42 36.50 L81.67 38.47 L79.59 40.39 L77.19 42.20 L74.49 43.89 L71.52 45.43 L68.31 46.77 L64.90 47.91 L61.33 48.81 L57.62 49.47 L53.83 49.87 L50.00 50.00 L46.17 49.87 L42.38 49.47 L38.67 48.81 L35.10 47.91 L31.69 46.77 L28.48 45.43 L25.51 43.89 L22.81 42.20 L20.41 40.39 L18.33 38.47 L16.58 36.50 L15.19 34.50 L14.16 32.52 L13.49 30.59 L13.19 28.75 L13.25 27.04 L13.66 25.49 L14.40 24.14 L15.46 23.01 L16.81 22.15 L18.42 21.56 L20.26 21.28 L22.30 21.31 L24.50 21.68 L26.83 22.39 L29.25 23.44 L31.71 24.83 L34.18 26.55 L36.63 28.60 L39.00 30.95 L41.27 33.58 L43.40 36.47 L45.37 39.60 L47.14 42.92 L48.69 46.40 L50.00 50.00 L51.06 53.69 L51.85 57.41 L52.37 61.14 L52.61 64.82 L52.59 68.41 L52.30 71.88 L51.76 75.18 L50.99 78.27 L50.00 81.11 L48.82 83.69 L47.49 85.95 L46.02 87.90 L44.45 89.49 L42.82 90.72 L41.16 91.57 L39.52 92.04 L37.92 92.13 L36.40 91.85 L35.01 91.19 L33.77 90.18 L32.71 88.83 L31.87 87.16 L31.28 85.21 L30.95 83.00 L30.90 80.57 L31.15 77.94 L31.71 75.17 L32.59 72.29 L33.78 69.33 L35.28 66.35 L37.08 63.38 L39.17 60.45 L41.54 57.62 L44.15 54.91 L46.98 52.36 L50.00 50.00 L53.18 47.86 L56.48 45.95 L59.86 44.31 L63.29 42.93 L66.71 41.85 L70.10 41.05 L73.40 40.55 L76.58 40.33 L79.59 40.39 L82.40 40.71 L84.97 41.28 L87.27 42.08 L89.27 43.08 L90.94 44.25 L92.27 45.56 L93.23 46.98 L93.81 48.47 L94.00 50.00" fill="none"/>
  </defs>
  <g stroke="#f4f2ec" stroke-width="0.6" stroke-opacity="0.85" fill="none" stroke-linecap="round" stroke-linejoin="round">
    <use href="#rose" transform="rotate(0 50 50)"/>
    <use href="#rose" transform="rotate(1.25 50 50)"/>
    <use href="#rose" transform="rotate(2.5 50 50)"/>
    <use href="#rose" transform="rotate(3.75 50 50)"/>
    <use href="#rose" transform="rotate(5 50 50)"/>
    <use href="#rose" transform="rotate(6.25 50 50)"/>
    <use href="#rose" transform="rotate(7.5 50 50)"/>
    <use href="#rose" transform="rotate(8.75 50 50)"/>
    <use href="#rose" transform="rotate(10 50 50)"/>
    <use href="#rose" transform="rotate(11.25 50 50)"/>
    <use href="#rose" transform="rotate(12.5 50 50)"/>
    <use href="#rose" transform="rotate(13.75 50 50)"/>
    <use href="#rose" transform="rotate(15 50 50)"/>
    <use href="#rose" transform="rotate(16.25 50 50)"/>
    <use href="#rose" transform="rotate(17.5 50 50)"/>
    <use href="#rose" transform="rotate(18.75 50 50)"/>
  </g>
</svg>
