<svg xmlns="http://www.w3.org/2000/svg" viewBox="0 0 512 512" fill="none" stroke="#ffffff" stroke-width="0.7" stroke-opacity="0.7" stroke-linejoin="round"><path d="M256 436L256 435L255.9 431.9L255.6 426.8L255.1 419.8L254.2 411L252.9 400.4L251.2 388.3L248.9 374.7L246.2 359.9L242.8 344.1L238.9 327.3L234.5 310L229.5 292.2L224.1 274.3L218.2 256.4L212 238.8L205.5 221.6L198.9 205.1L192.2 189.5L185.6 174.9L179.2 161.5L173.1 149.5L167.5 139L162.5 130L158.1 122.7L154.6 117L152.1 113.1L150.6 110.9L150.2 110.4L151.1 111.6L153.2 114.3L156.7 118.5L161.5 124.1L167.7 131L175.2 139L184 148L194 157.8L205.2 168.3L217.4 179.2L230.6 190.5L244.5 201.9L259.1 213.4L274.1 224.7L289.4 235.6L304.8 246.2L320.1 256.1L335.1 265.4L349.5 274L363.3 281.7L376.1 288.6L387.9 294.6L398.4 299.6L407.4 303.7L414.9 306.9L420.7 309.2L424.7 310.8L426.8 311.5L427 311.6L425.3 311L421.5 310L415.9 308.5L408.3 306.8L398.9 304.8L387.8 302.7L375.1 300.6L360.9 298.6L345.5 296.8L328.9 295.1L311.5 293.8L293.4 292.8L274.8 292.2L256 292L237.2 292.2L218.6 292.8L200.5 293.8L183.1 295.1L166.5 296.8L151.1 298.6L136.9 300.6L124.2 302.7L113.1 304.8L103.7 306.8L96.1 308.5L90.5 310L86.7 311L85 311.6L85.2 311.5L87.3 310.8L91.3 309.2L97.1 306.9L104.6 303.7L113.6 299.6L124.1 294.6L135.9 288.6L148.7 281.7L162.5 274L176.9 265.4L191.9 256.1L207.2 246.2L222.6 235.6L237.9 224.7L252.9 213.4L267.5 201.9L281.4 190.5L294.6 179.2L306.8 168.3L318 157.8L328 148L336.8 139L344.3 131L350.5 124.1L355.3 118.5L358.8 114.3L360.9 111.6L361.8 110.4L361.4 110.9L359.9 113.1L357.4 117L353.9 122.7L349.5 130L344.5 139L338.9 149.5L332.8 161.5L326.4 174.9L319.8 189.5L313.1 205.1L306.5 221.6L300 238.8L293.8 256.4L287.9 274.3L282.5 292.2L277.5 310L273.1 327.3L269.2 344.1L265.8 359.9L263.1 374.7L260.8 388.3L259.1 400.4L257.8 411L256.9 419.8L256.4 426.8L256.1 431.9L256 435L256 436L256 435L255.9 431.9L255.6 426.8L255.1 419.8L254.2 411L252.9 400.4L251.2 388.3L248.9 374.7L246.2 359.9L242.8 344.1L238.9 327.3L234.5 310L229.5 292.2L224.1 274.3L218.2 256.4L212 238.8L205.5 221.6L198.9 205.1L192.2 189.5L185.6 174.9L179.2 161.5L173.1 149.5L167.5 139L162.5 130L158.1 122.7L154.6 117L152.1 113.1L150.6 110.9L150.2 110.4L151.1 111.6L153.2 114.3L156.7 118.5L161.5 124.1L167.7 131L175.2 139L184 148L194 157.8L205.2 168.3L217.4 179.2L230.6 190.5L244.5 201.9L259.1 213.4L274.1 224.7L289.4 235.6L304.8 246.2L320.1 256.1L335.1 265.4L349.5 274L363.3 281.7L376.1 288.6L387.9 294.6L398.4 299.6L407.4 303.7L414.9 306.9L420.7 309.2L424.7 310.8L426.8 311.5L427 311.6L425.3 311L421.5 310L415.9 308.5L408.3 306.8L398.9 304.8L387.8 302.7L375.1 300.6L360.9 298.6L345.5 296.8L328.9 295.1L311.5 293.8L293.4 292.8L274.8 292.2L256 292L237.2 292.2L218.6 292.8L200.5 293.8L183.1 295.1L166.5 296.8L151.1 298.6L136.9 300.6L124.2 302.7L113.1 304.8L103.7 306.8L96.1 308.5L90.5 310L86.7 311L85 311.6L85.2 311.5L87.3 310.8L91.3 309.2L97.1 306.9L104.6 303.7L113.6 299.6L124.1 294.6L135.9 288.6L148.7 281.7L162.5 274L176.9 265.4L191.9 256.1L207.2 246.2L222.6 235.6L237.9 224.7L252.9 213.4L267.5 201.9L281.4 190.5L294.6 179.2L306.8 168.3L318 157.8L328 148L336.8 139L344.3 131L350.5 124.1L355.3 118.5L358.8 114.3L360.9 111.6L361.8 110.4L361.4 110.9L359.9 113.1L357.4 117L353.9 122.7L349.5 130L344.5 139L338.9 149.5L332.8 161.5L326.4 174.9L319.8 189.5L313.1 205.1L306.5 221.6L300 238.8L293.8 256.4L287.9 274.3L282.5 292.2L277.5 310L273.1 327.3L269.2 344.1L265.8 359.9L263.1 374.7L260.8 388.3L259.1 400.4L257.8 411L256.9 419.8L256.4 426.8L256.1 431.9L256 435L256 436L256 435L255.9 431.9L255.6 426.8L255.1 419.8L254.2 411L252.9 400.4L251.2 388.3L248.9 374.7L246.2 359.9L242.8 344.1L238.9 327.3L234.5 310L229.5 292.2L224.1 274.3L218.2 256.4L212 238.8L205.5 221.6L198.9 205.1L192.2 189.5L185.6 174.9L179.2 161.5L173.1 149.5L167.5 139L162.5 130L158.1 122.7L154.6 117L152.1 113.1L150.6 110.9L150.2 110.4L151.1 111.6L153.2 114.3L156.7 118.5L161.5 124.1L167.7 131L175.2 139L184 148L194 157.8L205.2 168.3L217.4 179.2L230.6 190.5L244.5 201.9L259.1 213.4L274.1 224.7L289.4 235.6L304.8 246.2L320.1 256.1L335.1 265.4L349.5 274L363.3 281.7L376.1 288.6L387.9 294.6L398.4 299.6L407.4 303.7L414.9 306.9L420.7 309.2L424.7 310.8L426.8 311.5L427 311.6L425.3 311L421.5 310L415.9 308.5L408.3 306.8L398.9 304.8L387.8 302.7L375.1 300.6L360.9 298.6L345.5 296.8L328.9 295.1L311.5 293.8L293.4 292.8L274.8 292.2L256 292"/><path d="M255.5 436.5L255.5 435.2L255.4 431.9L255.1 426.6L254.5 419.3L253.7 410.3L252.4 399.6L250.7 387.3L248.4 373.5L245.7 358.6L242.4 342.6L238.6 325.8L234.2 308.4L229.3 290.6L224 272.6L218.3 254.7L212.2 237L205.9 219.8L199.4 203.3L192.9 187.7L186.4 173.1L180.1 159.7L174.2 147.7L168.7 137.1L163.8 128.2L159.6 120.8L156.1 115.2L153.7 111.3L152.2 109.1L151.9 108.6L152.7 109.8L154.9 112.6L158.3 116.8L163 122.5L169.1 129.5L176.4 137.6L185.1 146.7L194.9 156.6L205.9 167.3L217.9 178.4L230.8 189.9L244.5 201.6L258.9 213.3L273.7 224.8L288.8 236.1L304 247L319.1 257.3L333.9 266.9L348.2 275.8L361.8 283.9L374.6 291.1L386.3 297.4L396.8 302.7L405.9 307.1L413.5 310.5L419.4 313.1L423.5 314.8L425.8 315.7L426.2 315.8L424.7 315.3L421.2 314.2L415.8 312.7L408.5 310.8L399.4 308.6L388.5 306.2L376.1 303.8L362.2 301.4L347 299.1L330.7 297L313.4 295.1L295.4 293.6L276.9 292.4L258.1 291.6L239.3 291.2L220.7 291.2L202.4 291.5L184.8 292.3L168.1 293.4L152.4 294.7L137.9 296.2L124.8 297.9L113.3 299.6L103.5 301.3L95.5 302.9L89.3 304.2L85.1 305.2L82.9 305.8L82.7 305.8L84.4 305.3L88 304.1L93.4 302.2L100.6 299.4L109.4 295.9L119.7 291.4L131.4 286.1L144.2 280L158 273L172.6 265.2L187.8 256.6L203.4 247.4L219.1 237.6L234.9 227.4L250.5 216.8L265.6 206L280.2 195.1L294.1 184.3L307 173.8L319 163.6L329.8 154L339.4 145.2L347.6 137.2L354.6 130.2L360.1 124.4L364.2 119.9L366.9 116.7L368.3 115.1L368.4 115L367.2 116.6L364.9 119.8L361.5 124.6L357.1 131.2L351.9 139.3L346 149L339.6 160.2L332.7 172.7L325.5 186.5L318.1 201.4L310.6 217.3L303.3 233.9L296.1 251L289.2 268.5L282.7 286.2L276.6 303.7L271.1 321L266.1 337.8L261.7 353.8L257.9 369L254.7 382.9L252.1 395.6L250 406.8L248.4 416.3L247.3 424.1L246.6 430.1L246.2 434L246.1 436L246.1 435.9L246.2 433.8L246.2 429.7L246.1 423.6L245.9 415.6L245.4 405.8L244.5 394.4L243.3 381.4L241.6 367.1L239.4 351.6L236.8 335.1L233.6 317.8L230 300L225.9 281.8L221.3 263.6L216.3 245.4L211.1 227.6L205.6 210.4L199.9 193.9L194.2 178.3L188.6 163.9L183.1 150.8L177.9 139L173.2 128.9L169 120.3L165.4 113.4L162.6 108.4L160.7 105L159.8 103.5L159.9 103.7L161.2 105.6L163.6 109.1L167.3 114.1L172.2 120.6L178.4 128.4L185.8 137.3L194.5 147.2L204.2 158L215 169.4L226.8 181.4L239.5 193.7L252.8 206.1L266.7 218.5L281.1 230.7L295.6 242.6L310.2 254L324.7 264.8L338.8 274.9L352.4 284.2L365.3 292.6L377.3 300.1L388.2 306.6L397.9 312.1L406.2 316.5L412.9 320L418 322.4L421.3 323.9L422.9 324.6L422.5 324.5L420.2 323.6L416 322.1L409.9 320.1L402 317.6L392.3 314.8L381 311.9L368.1 308.8L353.8 305.6L338.2 302.6L321.6 299.7L304.2 297L286 294.7L267.5 292.7L248.7 291L230 289.8L211.5 289L193.5 288.6L176.2 288.6L159.8 288.9L144.5 289.5L130.5 290.4L118 291.4L107.1 292.6L97.9 293.8L90.5 294.9L85.1 295.8L81.7 296.4L80.2 296.8L80.8 296.6L83.3 296L87.7 294.7L94 292.8L102 290.1L111.6 286.7L122.7 282.5L135.1 277.5L148.7 271.7L163.2 265.1L178.4 257.8L194.3 249.8L210.4 241.2L226.7 232L242.9 222.4L258.9 212.6L274.4 202.5L289.2 192.4L303.3 182.4L316.4 172.7L328.4 163.4L339.2 154.6L348.7 146.5L356.8 139.3L363.5 133.2L368.7 128.1L372.5 124.3L374.8 121.9L375.7 120.9L375.2 121.5L373.5 123.6L370.5 127.3L366.4 132.7L361.3 139.6L355.4 148.1L348.7 158L341.5 169.4L333.8 182.1L325.7 196L317.5 210.8L309.3 226.6L301.1 243L293.1 260L285.5 277.2L278.2 294.5L271.5 311.6L265.3 328.4L259.6 344.7L254.7 360.1L250.3 374.6L246.7 387.9L243.6 399.8L241.2 410.3L239.4 419L238.1 426L237.3 431.2L236.8 434.3L236.7 435.5L236.8 434.6L237 431.7L237.3 426.7L237.5 419.9L237.6 411.1L237.5 400.7L237.1 388.5L236.4 374.9L235.3 360L233.8 344L231.8 327.1L229.4 309.4L226.5 291.2L223.1 272.8L219.4 254.4L215.2 236.1L210.8 218.2L206.1 201L201.3 184.6L196.4 169.2L191.5 155L186.8 142.1L182.4 130.7L178.4 121L174.8 112.9L171.9 106.6L169.6 102.1L168.3 99.4L167.8 98.5L168.3 99.4L169.9 102.1L172.6 106.4L176.5 112.2L181.6 119.5L187.8 128.1L195.2 137.9L203.8 148.6L213.4 160.2L224 172.4L235.5 185.1L247.8 198.1L260.7 211.2L274.1 224.3L287.9 237.1L301.9 249.6L315.8 261.6L329.6 272.8L343 283.3L355.9 293L368 301.7L379.2 309.3L389.3 316L398.2 321.5L405.6 325.9L411.5 329.3L415.8 331.6L418.4 332.9L419.1 333.3L418 332.7L415 331.5L410.2 329.5L403.5 326.9L395 323.9L384.8 320.5L373 316.8L359.7 313L345 309.1L329.2 305.3L312.4 301.6L294.8 298.1L276.6 295"/><path d="M255 436.9L255 435.4L254.9 431.8L254.6 426.3L254 418.8L253.1 409.6L251.9 398.6L250.2 386.2L248 372.3L245.3 357.2L242 341.2L238.3 324.3L234 306.8L229.2 288.9L223.9 270.9L218.3 252.9L212.4 235.2L206.2 218L199.9 201.5L193.5 185.8L187.2 171.3L181.1 157.9L175.3 145.9L169.9 135.3L165.1 126.4L161 119L157.7 113.4L155.3 109.5L153.8 107.3L153.5 106.9L154.4 108.1L156.5 110.9L159.8 115.2L164.5 120.9L170.4 128L177.7 136.2L186.1 145.4L195.8 155.5L206.6 166.3L218.4 177.6L231.1 189.3L244.6 201.3L258.7 213.2L273.3 225L288.1 236.6L303.1 247.7L318 258.4L332.7 268.3L346.8 277.6L360.4 286L373.1 293.5L384.7 300.1L395.2 305.7L404.3 310.4L411.9 314.1L417.9 316.9L422.2 318.7L424.7 319.7L425.3 320L424 319.5L420.7 318.4L415.6 316.8L408.5 314.7L399.7 312.4L389.2 309.8L377 307L363.3 304.3L348.4 301.5L332.3 299L315.2 296.6L297.3 294.5L279 292.7L260.2 291.3L241.4 290.3L222.8 289.7L204.4 289.5L186.7 289.6L169.7 290.1L153.8 290.9L139 292L125.6 293.2L113.7 294.6L103.5 295.9L95.1 297.3L88.5 298.4L83.9 299.3L81.2 299.9L80.5 300.1L81.8 299.8L85 298.8L90 297.2L96.9 294.9L105.5 291.9L115.6 288L127.1 283.4L139.8 277.9L153.6 271.6L168.3 264.5L183.6 256.8L199.5 248.3L215.6 239.3L231.7 229.8L247.8 219.9L263.5 209.8L278.7 199.5L293.2 189.2L306.8 179.1L319.5 169.4L331.1 160L341.4 151.3L350.5 143.4L358.1 136.4L364.4 130.5L369.2 125.7L372.5 122.3L374.4 120.2L375 119.6L374.2 120.5L372.1 123.1L368.9 127.2L364.6 133L359.3 140.3L353.3 149.2L346.5 159.5L339.2 171.2L331.5 184.2L323.5 198.3L315.3 213.5L307.1 229.4L299 246L291.2 263L283.6 280.3L276.5 297.6L269.9 314.7L263.8 331.4L258.3 347.5L253.5 362.8L249.3 377.1L245.7 390.2L242.8 401.9L240.5 412.1L238.7 420.6L237.5 427.3L236.7 432.2L236.3 435L236.2 435.9L236.3 434.8L236.5 431.6L236.8 426.4L237.1 419.3L237.2 410.4L237.1 399.7L236.8 387.4L236.1 373.7L235.1 358.6L233.6 342.5L231.7 325.4L229.3 307.7L226.5 289.5L223.2 271.1L219.6 252.6L215.6 234.3L211.3 216.4L206.7 199.2L202 182.8L197.3 167.4L192.6 153.2L188 140.4L183.7 129L179.8 119.3L176.3 111.3L173.5 105L171.4 100.5L170 97.8L169.6 97L170.1 97.9L171.7 100.6L174.3 104.9L178.1 110.8L183.1 118.2L189.2 126.9L196.5 136.7L204.8 147.6L214.2 159.3L224.6 171.7L235.9 184.6L247.9 197.8L260.6 211.1L273.8 224.4L287.3 237.5L301 250.3L314.8 262.5L328.4 274.1L341.6 284.9L354.3 294.9L366.3 303.9L377.4 311.8L387.5 318.7L396.3 324.5L403.8 329.2L409.8 332.8L414.1 335.3L416.8 336.8L417.7 337.2L416.8 336.8L414.1 335.5L409.5 333.5L403.1 330.9L394.9 327.7L385 324.1L373.4 320.1L360.4 316L346.1 311.7L330.5 307.5L313.9 303.3L296.6 299.3L278.5 295.6L260.1 292.2L241.5 289.1L223 286.5L204.7 284.3L186.9 282.5L169.9 281.2L153.7 280.2L138.7 279.7L125 279.5L112.7 279.5L102.1 279.8L93.2 280.2L86.1 280.7L81 281.1L77.9 281.5L76.8 281.6L77.7 281.5L80.6 281L85.5 280L92.2 278.5L100.7 276.5L110.9 273.8L122.5 270.5L135.5 266.5L149.7 261.9L164.8 256.5L180.8 250.5L197.3 243.8L214.2 236.6L231.3 228.9L248.3 220.8L265 212.4L281.3 203.8L297 195.1L311.8 186.5L325.6 178L338.3 169.9L349.8 162.2L359.9 155.1L368.5 148.8L375.6 143.4L381.2 138.9L385.2 135.6L387.6 133.5L388.5 132.7L387.9 133.3L385.8 135.3L382.4 138.8L377.8 143.8L372 150.2L365.3 158.2L357.6 167.5L349.3 178.1L340.3 190L330.9 203L321.3 217L311.5 231.9L301.7 247.4L292.1 263.5L282.7 279.8L273.8 296.3L265.3 312.7L257.4 328.8L250.1 344.3L243.6 359.2L237.7 373.2L232.7 386.1L228.4 397.7L224.9 407.9L222.2 416.5L220.1 423.4L218.7 428.4L217.9 431.6L217.6 432.9L217.8 432.1L218.3 429.4L219 424.6L220 418L221 409.4L222.1 399.1L223 387.2L223.8 373.7L224.4 358.9L224.7 342.9L224.6 325.9L224.2 308.2L223.4 289.8L222.1 271.2L220.5 252.4L218.5 233.8L216.1 215.5L213.4 197.7L210.5 180.8L207.4 164.8L204.2 149.9L201 136.4L197.9 124.4L194.9 113.9L192.3 105.2L190 98.3L188.3 93.3L187.1 90.1L186.6 88.9L186.9 89.5L188 92L190 96.2L193 102.2L196.9 109.7L201.9 118.7L207.9 129.1L214.9 140.5L222.9 153L231.7 166.3L241.4 180.1L251.9 194.5L263 209L274.7 223.6L286.7 238.1L299 252.3L311.4 266L323.7 279.1L335.8 291.4L347.5 302.8L358.7 313.2L369 322.5L378.5 330.6L386.9 337.5L394.1 343.2L400 347.7L404.4 350.8L407.2 352.8L408.4 353.6L407.9 353.3L405.6 351.9L401.6 349.6L395.8 346.4L388.3 342.5L379.1 338L368.4 333L356.2 327.6L342.6 321.9L327.7 316.1L311.9 310.2L295.1 304.4"/><path d="M254.5 437.3L254.5 435.5L254.4 431.7L254.1 425.9L253.5 418.2L252.6 408.8L251.4 397.7L249.7 385.1L247.5 371.1L244.9 355.9L241.7 339.7L238 322.7L233.7 305.1L229 287.2L223.9 269.1L218.4 251.1L212.6 233.4L206.5 216.2L200.3 199.7L194.1 184L188 169.4L182 156.1L176.3 144.1L171.1 133.5L166.4 124.6L162.4 117.2L159.2 111.6L156.8 107.7L155.5 105.6L155.2 105.1L156.1 106.4L158.1 109.2L161.4 113.6L166 119.4L171.8 126.5L178.9 134.8L187.2 144.2L196.7 154.4L207.3 165.4L218.9 176.9L231.4 188.8L244.6 200.9L258.5 213.1L272.9 225.2L287.5 237.1L302.3 248.5L317 259.4L331.5 269.7L345.5 279.3L358.9 288L371.5 295.9L383.1 302.8L393.5 308.7L402.7 313.6L410.3 317.6L416.4 320.6L420.8 322.6L423.5 323.8L424.2 324.1L423.1 323.7L420.1 322.6L415.2 320.9L408.5 318.7L399.9 316.2L389.6 313.3L377.7 310.3L364.4 307.2L349.7 304L333.8 301L316.9 298.2L299.2 295.5L280.9 293.2L262.3 291.2L243.5 289.6L224.9 288.4L206.5 287.6L188.6 287.1L171.5 287L155.3 287.3L140.3 287.9L126.6 288.6L114.4 289.6L103.8 290.6L95 291.7L87.9 292.7L82.9 293.5L79.7 294.1L78.6 294.3L79.4 294.1L82.2 293.4L86.9 292.1L93.5 290.2L101.7 287.6L111.6 284.3L122.9 280.3L135.5 275.5L149.3 269.9L164 263.6L179.5 256.5L195.5 248.9L211.9 240.6L228.4 231.8L244.8 222.7L261 213.2L276.8 203.6L291.9 193.9L306.2 184.3L319.6 175L331.9 166L343 157.5L352.8 149.7L361.2 142.8L368.1 136.8L373.6 131.8L377.6 128.1L380.1 125.7L381.1 124.6L380.8 125L379.1 126.9L376.1 130.4L371.9 135.4L366.7 141.9L360.5 150L353.6 159.5L345.9 170.3L337.8 182.5L329.2 195.8L320.4 210.2L311.5 225.4L302.5 241.4L293.8 257.8L285.3 274.6L277.1 291.6L269.4 308.4L262.3 325L255.7 341.1L249.8 356.5L244.6 371L240.1 384.4L236.2 396.5L233.1 407.2L230.6 416.4L228.8 423.8L227.5 429.4L226.7 433.1L226.4 434.9L226.4 434.7L226.8 432.5L227.3 428.2L227.9 422.1L228.5 414L229.1 404.2L229.5 392.6L229.8 379.6L229.7 365.1L229.4 349.5L228.7 332.8L227.5 315.3L226 297.2L224.1 278.7L221.7 260L219 241.4L215.9 223.1L212.6 205.2L209 188.1L205.2 171.9L201.4 156.8L197.6 142.9L193.9 130.5L190.4 119.6L187.3 110.4L184.5 102.9L182.3 97.3L180.8 93.5L179.9 91.5L179.9 91.5L180.7 93.2L182.5 96.7L185.3 101.9L189.2 108.7L194.1 116.9L200 126.5L207 137.3L215 149.1L224 161.7L233.8 175L244.5 188.8L255.8 202.9L267.7 217.1L280.1 231.2L292.8 245.1L305.6 258.6L318.5 271.6L331.1 283.8L343.4 295.3L355.2 305.8L366.2 315.3L376.4 323.6L385.6 330.9L393.6 336.9L400.2 341.7L405.5 345.4L409.2 347.8L411.2 349.1L411.6 349.3L410.2 348.5L407 346.8L402 344.2L395.3 340.8L386.9 336.9L376.8 332.3L365.2 327.4L352.2 322.2L337.9 316.8L322.4 311.4L306 305.9L288.8 300.6L271 295.6L252.9 290.8L234.6 286.3L216.3 282.3L198.4 278.8L180.9 275.7L164.2 273L148.4 270.9L133.7 269.2L120.4 267.9L108.5 267.1L98.2 266.5L89.7 266.2L83 266.2L78.3 266.2L75.5 266.3L74.8 266.3L76.1 266.2L79.4 265.9L84.7 265.3L91.8 264.4L100.7 263L111.3 261.1L123.5 258.8L137 255.8L151.7 252.3L167.4 248.3L183.9 243.6L201.1 238.4L218.6 232.7L236.3 226.5L253.9 219.9L271.3 213L288.3 205.9L304.6 198.7L320 191.4L334.4 184.3L347.7 177.4L359.7 170.8L370.2 164.8L379.3 159.4L386.7 154.7L392.6 150.9L396.7 148L399.2 146.2L400.1 145.6L399.3 146.2L397 148.1L393.2 151.3L388 155.9L381.6 161.9L374 169.1L365.5 177.7L356.1 187.5L346 198.5L335.3 210.6L324.3 223.6L313.1 237.4L301.8 251.9L290.7 266.9L279.7 282.3L269.1 297.7L259 313.2L249.5 328.4L240.7 343.1L232.6 357.3L225.4 370.6L219.1 382.9L213.6 394L209 403.8L205.3 412.1L202.5 418.8L200.6 423.8L199.4 427L199 428.3L199.2 427.6L199.9 425.1L201.2 420.6L202.8 414.2L204.8 405.9L206.9 395.9L209.1 384.3L211.4 371.1L213.6 356.5L215.6 340.7L217.5 323.9L219 306.3L220.2 288.1L221.1 269.4L221.6 250.6L221.7 231.8L221.4 213.3L220.8 195.3L219.8 178L218.6 161.6L217.1 146.3L215.5 132.4L213.7 119.8L212 108.9L210.3 99.7L208.8 92.3L207.6 86.8L206.7 83.2L206.3 81.5L206.4 81.9L207.1 84.1L208.5 88.3L210.6 94.2L213.5 101.9L217.3 111.1L221.8 121.8L227.3 133.8L233.5 146.9L240.6 161L248.4 175.8L256.9 191.1L266.1 206.9L275.8 222.8L285.9 238.7L296.3 254.3L306.9 269.5L317.6 284.2L328.1 298.1L338.4 311.1L348.3 323L357.6 333.9L366.2 343.4L374 351.7L380.7 358.6L386.3 364.1L390.6 368.2L393.6 370.9L395.1 372.2L395.1 372.2L393.5 370.9L390.2 368.5L385.4 364.9L378.9 360.4L370.9 355L361.3 348.8L350.3 342L338 334.7L324.4 327.1L309.8 319.3"/><path d="M254.1 437.7L254 435.6L253.9 431.5L253.6 425.5L253 417.6L252.2 408L250.9 396.7L249.2 383.9L247.1 369.8L244.5 354.5L241.3 338.2L237.7 321.1L233.5 303.5L228.9 285.5L223.9 267.4L218.5 249.4L212.8 231.6L206.9 214.4L200.8 197.8L194.8 182.2L188.8 167.6L182.9 154.3L177.4 142.3L172.3 131.7L167.8 122.8L163.9 115.5L160.7 109.9L158.4 106L157.1 103.9L156.9 103.4L157.7 104.7L159.8 107.6L163 112L167.5 117.9L173.2 125.1L180.2 133.5L188.4 143L197.7 153.4L208.1 164.5L219.4 176.2L231.7 188.3L244.7 200.6L258.4 213L272.5 225.4L286.9 237.5L301.5 249.2L316 260.5L330.3 271.1L344.1 281L357.4 290L369.9 298.2L381.4 305.4L391.9 311.6L401 316.8L408.7 321L414.9 324.2L419.4 326.4L422.1 327.7L423.1 328.2L422.2 327.8L419.4 326.7L414.8 325L408.3 322.7L400 320L390 316.9L378.4 313.6L365.3 310.1L350.8 306.6L335.2 303.2L318.5 299.8L301 296.7L282.9 293.8L264.4 291.3L245.6 289.1L227 287.2L208.6 285.8L190.6 284.8L173.4 284.1L157 283.9L141.8 283.9L127.8 284.2L115.3 284.8L104.3 285.4L95.1 286.2L87.7 287L82.1 287.7L78.6 288.2L77 288.4L77.4 288.3L79.8 287.8L84.1 286.9L90.3 285.3L98.2 283.2L107.8 280.4L118.9 276.9L131.4 272.7L145.1 267.8L159.8 262.2L175.3 255.9L191.5 249L208.1 241.5L224.9 233.5L241.7 225.1L258.4 216.4L274.6 207.4L290.3 198.3L305.3 189.3L319.3 180.4L332.3 171.8L344.1 163.7L354.6 156.1L363.7 149.2L371.4 143.2L377.6 138.2L382.2 134.2L385.3 131.5L386.9 130L387 129.9L385.7 131.3L383 134.1L379 138.4L373.9 144.1L367.8 151.4L360.7 160.1L352.8 170.1L344.3 181.4L335.2 193.9L325.8 207.5L316.2 222L306.6 237.2L297 253L287.5 269.3L278.4 285.8L269.7 302.3L261.5 318.6L253.9 334.6L246.9 349.9L240.7 364.5L235.2 378.1L230.4 390.6L226.4 401.8L223.1 411.4L220.6 419.5L218.7 425.9L217.5 430.4L216.8 433L216.7 433.7L216.9 432.4L217.6 429.1L218.4 423.9L219.5 416.7L220.6 407.8L221.7 397.1L222.7 384.8L223.6 371L224.3 355.9L224.7 339.7L224.7 322.6L224.4 304.7L223.8 286.3L222.7 267.6L221.3 248.8L219.5 230.1L217.4 211.9L215 194.2L212.3 177.3L209.5 161.3L206.5 146.6L203.6 133.2L200.7 121.2L198 110.9L195.6 102.3L193.5 95.5L191.8 90.5L190.8 87.4L190.3 86.3L190.6 87L191.7 89.6L193.7 93.9L196.5 100L200.3 107.6L205 116.8L210.7 127.3L217.3 138.9L224.9 151.6L233.3 165.1L242.5 179.3L252.5 193.9L263.1 208.8L274.2 223.8L285.7 238.7L297.4 253.4L309.3 267.6L321.2 281.1L332.9 294L344.2 305.9L354.9 316.9L365 326.7L374.3 335.4L382.6 342.9L389.7 349L395.6 353.9L400.1 357.5L403.1 359.8L404.5 360.9L404.4 360.8L402.5 359.5L398.9 357.2L393.7 354L386.8 349.9L378.2 345.1L368.1 339.7L356.5 333.8L343.5 327.5L329.3 320.9L314.1 314.3L297.9 307.6L281 301L263.5 294.6L245.8 288.4L227.9 282.7L210 277.3L192.5 272.4L175.5 268L159.3 264.2L143.9 260.9L129.7 258.1L116.8 255.9L105.4 254.2L95.5 252.9L87.4 251.9L81.2 251.4L76.9 251.1L74.5 250.9L74.2 250.9L75.9 250.9L79.6 250.9L85.2 250.7L92.7 250.4L102 249.7L113 248.7L125.6 247.4L139.5 245.5L154.6 243.3L170.8 240.5L187.8 237.2L205.4 233.5L223.4 229.3L241.6 224.7L259.7 219.7L277.6 214.3L295.1 208.7L311.9 203L327.8 197.2L342.7 191.4L356.4 185.8L368.8 180.4L379.7 175.4L389.1 170.9L396.8 167L402.8 163.8L407 161.4L409.5 159.9L410.3 159.5L409.3 160.1L406.7 161.9L402.6 164.8L396.9 168.9L389.8 174.3L381.5 180.9L372.1 188.6L361.8 197.6L350.6 207.5L338.9 218.5L326.6 230.4L314.1 243.1L301.4 256.4L288.8 270.2L276.4 284.4L264.3 298.7L252.7 313.1L241.7 327.2L231.5 341L222 354.3L213.4 366.8L205.8 378.4L199.2 388.9L193.7 398.2L189.1 406.2L185.6 412.6L183.1 417.4L181.6 420.5L181 421.8L181.2 421.2L182.2 418.9L183.9 414.6L186.2 408.5L189 400.6L192.1 391L195.6 379.8L199.3 367L203 352.9L206.7 337.5L210.4 321.1L213.9 303.8L217.1 285.8L220.1 267.4L222.7 248.8L224.9 230.1L226.7 211.7L228.1 193.6L229.1 176.2L229.8 159.7L230.1 144.2L230 130L229.8 117.1L229.3 105.9L228.7 96.3L228.1 88.5L227.5 82.6L227 78.6L226.7 76.6L226.7 76.6L227.1 78.6L227.9 82.6L229.2 88.4L231.1 96.1L233.6 105.4L236.8 116.3L240.6 128.5L245.1 142.1L250.3 156.7L256.2 172.2L262.7 188.3L269.8 205L277.4 221.9L285.5 238.9L293.9 255.7L302.5 272.2L311.3 288.2L320.1 303.5L328.8 317.9L337.2 331.2L345.3 343.4L352.8 354.3L359.6 363.9L365.7 371.9L370.8 378.5L374.9 383.5L377.8 387L379.5 388.9L379.9 389.3L378.8 388.2L376.4 385.7L372.4 381.9L367 377L360.2 370.9L351.9 363.8L342.3 355.9L331.4 347.3L319.2 338.1"/><path d="M253.6 438L253.6 435.7L253.5 431.4L253.1 425.1L252.6 417L251.7 407.2L250.5 395.7L248.8 382.7L246.7 368.5L244.1 353L241 336.6L237.4 319.5L233.3 301.8L228.8 283.8L223.9 265.6L218.6 247.5L213 229.8L207.3 212.5L201.4 196L195.4 180.4L189.6 165.8L183.9 152.5L178.5 140.5L173.5 129.9L169.1 121L165.3 113.7L162.2 108.1L160 104.3L158.8 102.2L158.5 101.8L159.4 103.1L161.4 106L164.6 110.5L169 116.5L174.6 123.7L181.5 132.2L189.5 141.8L198.6 152.3L208.8 163.6L220 175.4L232 187.7L244.8 200.3L258.3 213L272.1 225.6L286.3 237.9L300.7 250L315 261.5L329.1 272.4L342.8 282.6L355.9 292L368.3 300.4L379.8 307.9L390.1 314.4L399.3 319.9L407 324.4L413.2 327.8L417.8 330.2L420.7 331.6L421.8 332.2L421.1 331.9L418.6 330.8L414.2 329L407.9 326.6L399.9 323.7L390.2 320.5L378.9 316.9L366 313.1L351.8 309.3L336.4 305.4L320 301.6L302.7 298L284.7 294.6L266.4 291.4L247.7 288.7L229.1 286.3L210.7 284.2L192.7 282.6L175.3 281.4L158.8 280.6L143.4 280.1L129.1 279.9L116.3 280L105 280.4L95.4 280.8L87.6 281.3L81.7 281.9L77.7 282.3L75.7 282.5L75.7 282.5L77.7 282.2L81.6 281.5L87.4 280.3L95 278.5L104.3 276.2L115.1 273.3L127.4 269.7L141 265.4L155.6 260.5L171.2 255L187.5 248.8L204.2 242.1L221.3 234.9L238.4 227.2L255.5 219.2L272.2 210.9L288.4 202.5L303.9 194L318.6 185.6L332.2 177.5L344.7 169.7L356 162.4L365.8 155.7L374.2 149.7L381.1 144.7L386.4 140.6L390.1 137.6L392.3 135.8L392.9 135.3L392 136.1L389.6 138.3L385.9 141.9L381 147L374.9 153.4L367.7 161.3L359.7 170.5L350.9 181L341.5 192.6L331.6 205.3L321.4 219L311 233.5L300.7 248.7L290.4 264.3L280.4 280.3L270.7 296.3L261.5 312.3L252.8 328L244.8 343.3L237.5 357.9L231 371.6L225.3 384.3L220.4 395.8L216.2 406L212.9 414.6L210.4 421.6L208.6 426.8L207.6 430.2L207.1 431.7L207.2 431.3L207.8 429L208.8 424.7L210.1 418.5L211.6 410.4L213.3 400.6L215 389.1L216.7 376.1L218.3 361.7L219.8 346.1L220.9 329.4L221.8 311.9L222.4 293.7L222.6 275.1L222.5 256.3L222 237.5L221.1 218.9L219.9 200.8L218.4 183.3L216.7 166.8L214.7 151.2L212.6 136.9L210.5 124L208.4 112.6L206.4 102.9L204.6 95L203.1 88.9L201.9 84.7L201.3 82.4L201.2 82L201.7 83.6L202.9 87L204.9 92.3L207.7 99.2L211.3 107.7L215.7 117.8L221.1 129.1L227.3 141.6L234.3 155.2L242.1 169.5L250.6 184.5L259.8 199.9L269.6 215.6L279.8 231.3L290.4 246.9L301.2 262.2L312.1 277L322.9 291.1L333.6 304.4L343.8 316.8L353.6 328.1L362.8 338.2L371.1 347.1L378.5 354.7L384.8 360.9L389.9 365.7L393.6 369.2L396 371.2L396.9 372L396.2 371.5L394 369.7L390.1 366.8L384.6 362.9L377.5 358L368.9 352.4L358.8 346L347.3 339L334.5 331.7L320.6 324L305.6 316.1L289.8 308.2L273.3 300.3L256.3 292.6L238.9 285.2L221.5 278.1L204.3 271.5L187.3 265.3L170.8 259.7L155.1 254.7L140.4 250.4L126.7 246.6L114.3 243.5L103.4 240.9L94.1 238.9L86.5 237.5L80.7 236.5L76.8 235.9L74.9 235.6L74.9 235.6L77 235.8L81.1 236.1L87 236.4L94.9 236.7L104.6 236.8L115.9 236.7L128.8 236.4L143 235.7L158.5 234.7L175 233.3L192.3 231.5L210.2 229.3L228.6 226.6L247.1 223.5L265.6 220.1L283.9 216.4L301.7 212.4L318.8 208.1L335.1 203.8L350.4 199.4L364.4 195L377 190.8L388.2 186.9L397.8 183.3L405.6 180.2L411.7 177.6L416 175.7L418.5 174.6L419.1 174.2L418 174.8L415.1 176.4L410.5 179L404.4 182.7L396.8 187.4L387.8 193.2L377.6 200.1L366.4 208L354.3 216.9L341.5 226.7L328.1 237.4L314.4 248.8L300.5 260.8L286.6 273.4L272.8 286.2L259.4 299.3L246.4 312.4L234.1 325.4L222.5 338.1L211.7 350.3L201.9 361.9L193.2 372.7L185.5 382.5L179 391.2L173.7 398.6L169.5 404.7L166.5 409.2L164.6 412.2L163.8 413.5L164.1 413L165.3 410.8L167.4 406.8L170.3 401.1L173.8 393.6L178 384.5L182.6 373.8L187.6 361.6L192.8 348L198.2 333.2L203.6 317.4L208.9 300.6L214.1 283.2L219.1 265.2L223.7 247L228 228.7L231.9 210.5L235.3 192.7L238.3 175.5L240.8 159L242.9 143.5L244.5 129.2L245.7 116.2L246.6 104.8L247.1 95L247.4 86.9L247.5 80.7L247.5 76.4L247.4 74.1L247.4 73.8L247.5 75.6L247.8 79.3L248.4 84.9L249.4 92.4L250.7 101.6L252.5 112.5L254.7 124.9L257.6 138.7L260.9 153.6L264.8 169.5L269.3 186.2L274.2 203.5L279.7 221.1L285.6 239L291.8 256.7L298.4 274.2L305.1 291.3L312 307.7L318.9 323.2L325.7 337.8L332.3 351.1L338.5 363.2L344.2 373.9L349.4 383L353.9 390.6L357.5 396.5L360.3 400.7L362 403.2L362.6 404.1L362 403.4L360.3 401L357.2 397.2L352.8 391.9L347.2 385.4L340.2 377.7L332.1 368.9L322.7 359.2"/><path d="M253.2 438.3L253.1 435.7L253 431.1L252.7 424.7L252.1 416.3L251.3 406.3L250 394.6L248.4 381.5L246.3 367.1L243.7 351.6L240.7 335.1L237.2 317.8L233.2 300.1L228.7 282L223.9 263.8L218.8 245.7L213.3 228L207.7 210.7L201.9 194.2L196.1 178.5L190.4 164L184.8 150.6L179.6 138.7L174.7 128.2L170.4 119.3L166.7 112L163.8 106.4L161.6 102.6L160.4 100.5L160.2 100.2L161.1 101.5L163.1 104.5L166.2 109L170.5 115.1L176.1 122.4L182.8 131L190.6 140.7L199.6 151.3L209.6 162.7L220.6 174.8L232.4 187.2L245 200L258.2 212.9L271.8 225.7L285.8 238.4L299.9 250.7L314 262.5L327.9 273.7L341.4 284.2L354.4 293.8L366.7 302.6L378.1 310.4L388.4 317.2L397.5 322.9L405.2 327.6L411.5 331.3L416.2 333.9L419.2 335.5L420.5 336.1L420 335.9L417.6 334.8L413.4 333L407.5 330.5L399.7 327.5L390.3 324.1L379.2 320.2L366.7 316.2L352.7 312L337.6 307.7L321.4 303.5L304.3 299.3L286.5 295.4L268.3 291.8L249.8 288.4L231.2 285.4L212.8 282.8L194.8 280.6L177.3 278.8L160.7 277.5L145.1 276.5L130.6 275.8L117.5 275.5L106 275.4L96 275.5L87.8 275.8L81.5 276.1L77.1 276.4L74.7 276.6L74.3 276.7L75.8 276.5L79.3 276L84.7 275L92 273.7L101 271.8L111.6 269.4L123.7 266.4L137.1 262.8L151.6 258.5L167.1 253.7L183.5 248.3L200.3 242.4L217.6 235.9L235 229L252.4 221.7L269.5 214.1L286.2 206.3L302.3 198.5L317.5 190.7L331.8 183L344.9 175.6L356.8 168.6L367.4 162.2L376.5 156.3L384 151.3L390 147.1L394.4 144L397.1 141.9L398.3 141L397.9 141.3L395.9 143L392.5 146L387.8 150.3L381.8 156L374.7 163.1L366.6 171.5L357.6 181.1L347.9 191.9L337.6 203.8L326.9 216.7L315.9 230.4L304.8 244.8L293.8 259.8L282.9 275.1L272.3 290.7L262.1 306.2L252.5 321.6L243.5 336.7L235.2 351.2L227.6 364.9L220.9 377.7L215 389.5L210 400L205.9 409L202.7 416.6L200.3 422.5L198.7 426.6L197.8 428.9L197.7 429.4L198.1 427.9L199.1 424.6L200.6 419.3L202.4 412.2L204.6 403.3L206.9 392.7L209.3 380.5L211.7 366.8L214 351.9L216.2 335.8L218.3 318.7L220 300.9L221.5 282.6L222.6 263.9L223.4 245L223.8 226.3L223.8 207.9L223.5 190L222.9 172.9L222 156.7L220.9 141.6L219.6 127.8L218.2 115.5L216.8 104.8L215.5 95.8L214.2 88.6L213.2 83.2L212.5 79.8L212.2 78.4L212.3 78.9L212.9 81.3L214.2 85.6L216.1 91.7L218.8 99.5L222.1 109L226.2 119.8L231.1 132L236.8 145.4L243.2 159.7L250.3 174.9L258.1 190.6L266.4 206.8L275.3 223.1L284.6 239.5L294.2 255.7L303.9 271.5L313.8 286.8L323.6 301.3L333.2 315L342.5 327.7L351.2 339.2L359.4 349.5L366.8 358.5L373.3 366.1L378.8 372.3L383.1 377L386.2 380.2L388 382L388.3 382.3L387.2 381.3L384.6 379L380.5 375.5L374.8 370.8L367.7 365.1L359.1 358.6L349.1 351.2L337.8 343.3L325.3 334.8L311.6 326L297.1 316.9L281.7 307.8L265.7 298.7L249.2 289.7L232.5 281L215.7 272.7L199.1 264.9L182.7 257.5L167 250.8L151.9 244.8L137.8 239.4L124.7 234.7L112.9 230.7L102.6 227.4L93.8 224.8L86.8 222.9L81.5 221.5L78 220.7L76.6 220.4L77 220.5L79.5 220.9L83.9 221.6L90.2 222.5L98.4 223.4L108.3 224.3L119.9 225.2L133 226L147.4 226.5L163.1 226.8L179.8 226.8L197.4 226.4L215.5 225.7L234.1 224.6L252.8 223.2L271.6 221.3L290 219.2L308.1 216.7L325.4 214L341.9 211.1L357.3 208.1L371.5 205.1L384.3 202.1L395.6 199.2L405.3 196.5L413.2 194.1L419.4 192.2L423.6 190.8L426 189.9L426.5 189.7L425.2 190.3L422 191.6L417.1 193.8L410.5 197L402.3 201L392.8 206L381.9 211.9L369.9 218.8L356.9 226.6L343.2 235.1L328.8 244.5L314 254.5L299 265.1L283.9 276.2L269 287.7L254.3 299.4L240.1 311.1L226.6 322.8L213.8 334.3L201.9 345.3L191 355.9L181.2 365.7L172.6 374.7L165.2 382.7L159.1 389.6L154.3 395.2L150.9 399.4L148.7 402.2L147.7 403.4L148 403.1L149.4 401.1L151.8 397.4L155.3 392.1L159.6 385.1L164.6 376.5L170.3 366.4L176.5 354.9L183.1 342L190.1 328L197.1 312.8L204.2 296.8L211.3 280.1L218.2 262.8L224.8 245.2L231.1 227.5L237 209.8L242.4 192.5L247.3 175.6L251.7 159.4L255.5 144.2L258.8 130L261.5 117.1L263.7 105.6L265.4 95.7L266.6 87.5L267.5 81.1L268 76.6L268.2 74L268.2 73.5L268.2 74.9L268.1 78.3L268 83.7L268 90.9L268.2 100L268.7 110.8L269.5 123.1L270.6 136.8L272.1 151.8L274 167.9L276.4 184.9L279.2 202.5L282.4 220.6L286.1 239L290.1 257.4L294.5 275.6L299.1 293.5L304 310.7L308.9 327.2L313.9 342.7L318.8 357L323.6 370.1L328.1 381.7L332.2 391.8L335.8 400.2L338.9 407L341.3 412L342.9 415.2L343.6 416.6L343.4 416.2L342.2 414.1L339.9 410.4L336.6 405L332.1 398.2L326.5 390L319.8 380.6"/><path d="M252.8 438.6L252.7 435.7L252.6 430.9L252.3 424.2L251.7 415.6L250.8 405.4L249.6 393.6L248 380.3L245.9 365.7L243.4 350.1L240.4 333.5L236.9 316.2L233 298.3L228.7 280.2L224 262L218.9 243.9L213.6 226.1L208.1 208.9L202.4 192.3L196.8 176.7L191.2 162.2L185.8 148.8L180.7 136.9L176 126.4L171.8 117.5L168.2 110.3L165.3 104.7L163.3 100.9L162.1 98.9L161.9 98.6L162.8 100L164.7 103L167.8 107.6L172.1 113.7L177.5 121.1L184.1 129.8L191.8 139.6L200.6 150.4L210.4 161.9L221.2 174.1L232.8 186.8L245.1 199.7L258.1 212.8L271.5 225.9L285.2 238.8L299.1 251.4L313 263.5L326.7 275L340.1 285.7L352.9 295.7L365.1 304.7L376.3 312.8L386.6 319.9L395.7 325.9L403.4 330.8L409.7 334.7L414.5 337.5L417.6 339.2L419 340L418.7 339.8L416.6 338.8L412.6 336.9L406.9 334.4L399.4 331.3L390.2 327.7L379.5 323.6L367.2 319.3L353.5 314.7L338.7 310.1L322.7 305.4L305.8 300.8L288.3 296.4L270.2 292.2L251.8 288.3L233.3 284.7L214.9 281.6L196.9 278.8L179.4 276.4L162.7 274.5L146.9 273L132.3 271.8L118.9 271L107.1 270.6L96.8 270.3L88.3 270.3L81.6 270.4L76.8 270.6L74 270.7L73.1 270.8L74.2 270.7L77.3 270.3L82.4 269.7L89.3 268.7L97.9 267.2L108.2 265.3L120.1 262.8L133.3 259.8L147.7 256.3L163.2 252.1L179.5 247.4L196.5 242.2L213.9 236.5L231.5 230.4L249.2 223.8L266.6 217L283.7 209.9L300.3 202.7L316.1 195.5L330.9 188.3L344.7 181.4L357.3 174.8L368.5 168.6L378.3 162.9L386.5 158L393.2 153.8L398.2 150.5L401.5 148.2L403.3 147L403.3 147L401.8 148.1L398.8 150.5L394.4 154.2L388.6 159.2L381.5 165.5L373.4 173.1L364.3 181.9L354.4 191.8L343.8 202.9L332.6 214.9L321.1 227.8L309.4 241.4L297.7 255.7L286 270.4L274.5 285.3L263.4 300.4L252.9 315.4L242.8 330.1L233.5 344.4L225 358.1L217.3 370.9L210.4 382.8L204.5 393.5L199.6 403L195.5 411L192.5 417.5L190.3 422.3L188.9 425.3L188.4 426.6L188.6 426L189.6 423.5L191.1 419.1L193.1 413L195.5 405L198.3 395.3L201.2 384L204.4 371.1L207.6 356.9L210.7 341.5L213.8 325.1L216.7 307.7L219.3 289.7L221.6 271.3L223.7 252.6L225.4 233.8L226.7 215.3L227.6 197.1L228.2 179.6L228.4 162.9L228.4 147.2L228 132.6L227.5 119.5L226.8 107.8L226 97.8L225.2 89.6L224.4 83.1L223.8 78.6L223.4 76.1L223.3 75.5L223.6 76.8L224.3 80.1L225.5 85.3L227.3 92.3L229.7 101L232.7 111.3L236.4 123L240.7 136L245.8 150.1L251.5 165.2L257.8 181.1L264.8 197.5L272.2 214.3L280.1 231.3L288.4 248.2L297 264.9L305.7 281.1L314.5 296.8L323.2 311.7L331.8 325.7L340 338.5L347.8 350.2L354.9 360.6L361.4 369.6L367 377.1L371.7 383.1L375.3 387.6L377.8 390.5L379 391.9L378.9 391.8L377.4 390.3L374.6 387.3L370.3 383.1L364.5 377.7L357.4 371.1L348.9 363.7L339.1 355.4L328 346.4L315.9 336.9L302.7 326.9L288.6 316.7L273.8 306.4L258.4 296.1L242.6 286L226.6 276.1L210.5 266.6L194.6 257.6L179 249.1L163.9 241.4L149.6 234.3L136.2 228L123.8 222.5L112.7 217.7L103 213.8L94.9 210.7L88.3 208.4L83.6 206.8L80.6 205.8L79.6 205.5L80.5 205.7L83.3 206.5L88 207.6L94.6 209L103 210.7L113.1 212.5L124.9 214.3L138.1 216.2L152.7 217.9L168.5 219.5L185.3 220.9L202.9 222.1L221.2 222.9L239.8 223.4L258.6 223.5L277.4 223.3L296 222.7L314.1 221.8L331.5 220.7L348 219.2L363.5 217.6L377.8 215.8L390.6 214L401.9 212.1L411.6 210.4L419.5 208.8L425.6 207.4L429.8 206.4L432 205.8L432.4 205.7L430.8 206.2L427.3 207.3L422.1 209.1L415.1 211.7L406.5 215L396.4 219.1L384.9 224.1L372.2 229.8L358.5 236.3L344 243.6L328.7 251.5L313 260.1L297 269.2L280.9 278.8L264.9 288.8L249.2 299L233.9 309.3L219.3 319.5L205.5 329.7L192.5 339.5L180.7 348.9L169.9 357.7L160.5 365.7L152.3 372.9L145.6 379.2L140.3 384.2L136.3 388.1L133.9 390.7L132.8 391.8L133 391.5L134.6 389.7L137.4 386.4L141.3 381.5L146.3 375L152.2 367.1L158.9 357.7L166.2 347L174.2 335L182.5 321.8L191.1 307.6L199.9 292.4L208.7 276.6L217.4 260.2L225.9 243.5L234.2 226.5L242 209.6L249.3 192.9L256.1 176.6L262.3 161L267.8 146.1L272.7 132.3L276.9 119.6L280.4 108.3L283.3 98.4L285.5 90.2L287.1 83.7L288.2 79.1L288.8 76.3L288.9 75.5L288.7 76.6L288.3 79.7L287.6 84.8L286.8 91.7L286 100.5L285.2 110.9L284.5 123L284 136.6L283.7 151.5L283.7 167.5L284 184.4L284.7 202.2L285.7 220.5L287.1 239.1L288.8 257.8L291 276.5L293.4 294.8L296.1 312.7L299 329.8L302 346L305.2 361.1L308.4 374.9L311.5 387.3L314.4 398.2L317 407.5L319.3 414.9L321.2 420.6L322.6 424.4L323.3 426.4L323.3 426.5L322.6 424.7L321 421.2L318.6 415.9L315.2 409L311 400.6"/><path d="M252.4 438.8L252.3 435.7L252.2 430.6L251.9 423.6L251.3 414.9L250.4 404.5L249.2 392.4L247.6 379L245.5 364.3L243.1 348.5L240.1 331.9L236.7 314.5L232.9 296.6L228.6 278.4L224 260.1L219.1 242L213.9 224.2L208.5 207L203 190.5L197.4 174.9L192 160.3L186.8 147L181.8 135.1L177.2 124.7L173.1 115.8L169.6 108.6L166.9 103.1L164.9 99.3L163.8 97.3L163.6 97L164.5 98.5L166.4 101.5L169.5 106.2L173.6 112.4L179 119.9L185.4 128.7L193 138.6L201.6 149.4L211.3 161.1L221.8 173.5L233.2 186.3L245.3 199.5L258 212.8L271.2 226.1L284.7 239.2L298.4 252.1L312.1 264.4L325.6 276.2L338.8 287.2L351.4 297.5L363.4 306.8L374.6 315.2L384.8 322.5L393.8 328.8L401.6 334L407.9 338L412.7 341L416 342.9L417.5 343.8L417.3 343.7L415.4 342.7L411.7 340.9L406.2 338.3L399 335L390.1 331.2L379.6 327L367.6 322.4L354.2 317.5L339.6 312.5L323.9 307.4L307.3 302.4L289.9 297.5L272 292.8L253.8 288.3L235.4 284.2L217.1 280.5L199.1 277.1L181.6 274.2L164.7 271.7L148.8 269.6L134 268L120.5 266.7L108.4 265.9L97.8 265.3L89 264.9L81.9 264.8L76.7 264.8L73.5 264.9L72.2 264.9L73 264.9L75.7 264.7L80.3 264.2L86.8 263.5L95.1 262.4L105.1 260.9L116.7 259L129.7 256.6L144 253.7L159.3 250.2L175.6 246.3L192.6 241.8L210.1 236.8L227.9 231.5L245.8 225.7L263.6 219.6L281.1 213.2L298 206.7L314.3 200.1L329.7 193.5L344.1 187L357.3 180.8L369.2 174.9L379.6 169.5L388.5 164.7L395.8 160.6L401.5 157.2L405.5 154.8L407.8 153.3L408.4 152.9L407.4 153.6L404.8 155.5L400.6 158.6L395.1 162.9L388.2 168.5L380.1 175.3L371 183.2L360.9 192.4L350 202.5L338.6 213.7L326.6 225.8L314.3 238.6L301.9 252.1L289.5 266.1L277.3 280.4L265.4 294.9L253.9 309.4L242.9 323.7L232.6 337.7L223.1 351.2L214.4 364L206.6 375.9L199.8 386.8L193.9 396.5L189.1 404.9L185.2 411.8L182.4 417.2L180.5 420.9L179.5 422.9L179.4 423.1L180.1 421.5L181.6 418.1L183.6 412.8L186.3 405.8L189.4 397L192.8 386.6L196.6 374.6L200.5 361.3L204.5 346.6L208.5 330.8L212.4 314.1L216.1 296.5L219.7 278.5L222.9 260L225.9 241.4L228.4 222.8L230.6 204.6L232.4 186.8L233.9 169.6L234.9 153.4L235.6 138.3L236 124.4L236.1 111.9L236 101L235.8 91.7L235.4 84.3L235.1 78.7L234.8 75.1L234.6 73.4L234.6 73.7L234.9 75.9L235.6 80.1L236.7 86.2L238.2 94L240.3 103.5L242.9 114.6L246 127.1L249.8 140.9L254.1 155.8L259.1 171.6L264.6 188.1L270.6 205.1L277.1 222.5L284 240L291.3 257.3L298.8 274.4L306.4 291.1L314.1 307L321.8 322.1L329.3 336.3L336.4 349.3L343.2 361L349.4 371.3L355 380.2L359.8 387.6L363.7 393.4L366.7 397.5L368.5 400.1L369.3 401L368.7 400.4L367 398.2L363.9 394.6L359.5 389.7L353.8 383.4L346.7 376.1L338.4 367.7L328.9 358.4L318.2 348.4L306.5 337.8L293.8 326.8L280.4 315.5L266.2 304.1L251.5 292.6L236.4 281.3L221.2 270.3L205.9 259.7L190.8 249.7L176 240.2L161.8 231.5L148.3 223.5L135.6 216.3L124 210.1L113.7 204.7L104.6 200.2L97.1 196.7L91.2 194L87 192.2L84.5 191.2L83.9 191L85.2 191.4L88.3 192.5L93.3 194.1L100.1 196.1L108.7 198.6L118.9 201.3L130.8 204.2L144.1 207.1L158.8 210.1L174.6 213.1L191.3 215.9L208.9 218.5L227.1 220.8L245.7 222.9L264.4 224.6L283.2 226L301.6 227L319.6 227.7L337 228L353.5 228L368.9 227.7L383 227.2L395.8 226.5L407.1 225.7L416.6 224.8L424.4 223.9L430.4 223.2L434.4 222.6L436.5 222.2L436.7 222.2L434.9 222.6L431.1 223.4L425.6 224.8L418.2 226.7L409.2 229.2L398.6 232.4L386.7 236.3L373.4 240.9L359.1 246.1L343.8 252L327.9 258.4L311.4 265.5L294.6 273.1L277.6 281.1L260.7 289.4L244.1 298L227.9 306.8L212.4 315.6L197.6 324.3L183.8 332.8L171.1 340.9L159.5 348.6L149.3 355.6L140.5 362L133.2 367.5L127.4 372L123.1 375.5L120.3 377.8L119.1 378.8L119.4 378.6L121.1 377L124.2 373.9L128.6 369.5L134.2 363.7L140.8 356.4L148.4 347.9L156.9 338L166 326.9L175.6 314.8L185.7 301.6L196 287.5L206.5 272.7L216.9 257.4L227.2 241.7L237.2 225.7L246.8 209.7L256 193.9L264.5 178.4L272.4 163.5L279.6 149.3L286.1 135.9L291.7 123.7L296.5 112.7L300.6 103.1L303.8 95L306.2 88.5L307.9 83.8L308.8 80.9L309.2 79.8L308.9 80.7L308.1 83.5L307 88.2L305.4 94.7L303.7 103.1L301.7 113.1L299.6 124.8L297.6 138L295.5 152.5L293.7 168.3L292 185L290.5 202.6L289.3 220.8L288.5 239.4L288 258.2L287.8 277L288 295.6L288.5 313.7L289.3 331.2L290.3 347.8L291.6 363.4L293.1 377.8L294.6 390.8L296.2 402.4L297.8 412.2L299.2 420.3L300.4 426.6L301.4 431L302 433.5L302.1 434.1L301.7 432.7L300.8 429.5L299.2 424.4L296.9 417.6"/><path d="M252 439L251.9 435.6L251.8 430.3L251.5 423.1L250.9 414.1L250 403.5L248.8 391.3L247.2 377.7L245.2 362.9L242.8 347L239.9 330.2L236.5 312.7L232.8 294.8L228.6 276.6L224.1 258.3L219.2 240.1L214.2 222.4L208.9 205.1L203.5 188.6L198.1 173L192.8 158.5L187.7 145.2L182.9 133.3L178.4 122.9L174.5 114.1L171.1 106.9L168.4 101.4L166.5 97.7L165.4 95.7L165.3 95.5L166.2 97L168.1 100.1L171.1 104.8L175.2 111.1L180.4 118.7L186.8 127.6L194.2 137.6L202.7 148.6L212.1 160.4L222.5 172.9L233.6 185.9L245.5 199.2L258 212.8L271 226.3L284.2 239.7L297.7 252.7L311.1 265.4L324.4 277.4L337.4 288.7L349.9 299.3L361.8 308.9L372.9 317.5L382.9 325.1L391.9 331.6L399.7 337L406 341.3L410.9 344.5L414.2 346.6L415.9 347.6L415.9 347.5L414.1 346.6L410.6 344.7L405.4 342.1L398.4 338.8L389.8 334.8L379.6 330.4L367.9 325.5L354.8 320.3L340.4 315L325 309.5L308.6 304L291.5 298.7L273.8 293.4L255.7 288.5L237.4 283.8L219.2 279.5L201.2 275.6L183.7 272.1L166.9 269.1L150.9 266.5L135.9 264.3L122.2 262.6L109.8 261.3L99 260.3L89.9 259.7L82.5 259.3L76.9 259.1L73.3 259L71.6 259L72 259L74.3 258.9L78.5 258.7L84.6 258.2L92.6 257.5L102.3 256.4L113.5 255L126.3 253.1L140.4 250.8L155.6 248L171.8 244.8L188.8 241L206.3 236.8L224.2 232.2L242.3 227.2L260.4 221.8L278.2 216.2L295.6 210.3L312.3 204.3L328.2 198.4L343.1 192.4L356.9 186.7L369.4 181.2L380.5 176.1L390 171.4L398 167.4L404.3 164.1L408.9 161.5L411.8 159.9L413 159.2L412.5 159.5L410.3 160.9L406.6 163.4L401.3 167.1L394.6 172L386.7 178L377.6 185.2L367.4 193.5L356.4 202.8L344.6 213.1L332.3 224.3L319.6 236.3L306.6 249L293.6 262.2L280.6 275.8L267.9 289.7L255.5 303.6L243.6 317.5L232.4 331.1L221.9 344.4L212.2 357L203.5 368.9L195.7 379.8L188.9 389.7L183.2 398.4L178.6 405.7L175 411.6L172.5 415.9L171 418.6L170.5 419.5L170.9 418.7L172.2 416.1L174.2 411.8L177 405.6L180.3 397.8L184.1 388.3L188.3 377.3L192.9 364.8L197.6 350.9L202.5 335.9L207.3 319.8L212.1 302.9L216.8 285.3L221.2 267.2L225.3 248.8L229.1 230.4L232.6 212.1L235.6 194.2L238.2 176.9L240.5 160.3L242.2 144.6L243.7 130.1L244.7 116.9L245.4 105.2L245.8 95.1L246 86.6L246.1 80.1L246 75.3L246 72.6L245.9 71.8L246 73L246.3 76.1L246.8 81.2L247.6 88.1L248.8 96.8L250.4 107.1L252.5 119L255.1 132.3L258.2 146.8L261.8 162.3L265.9 178.7L270.5 195.8L275.5 213.4L281 231.2L286.9 249.1L293.1 266.8L299.5 284.3L306.1 301.1L312.7 317.3L319.2 332.5L325.7 346.7L331.8 359.7L337.6 371.4L342.9 381.6L347.6 390.3L351.6 397.4L354.9 402.9L357.2 406.6L358.5 408.7L358.8 409.2L357.9 407.9L355.9 405.1L352.7 400.8L348.3 395.1L342.6 388.1L335.8 379.9L327.8 370.6L318.6 360.3L308.4 349.4L297.2 337.7L285.2 325.7L272.4 313.3L259 300.8L245.1 288.3L230.9 275.9L216.5 263.9L202.1 252.3L187.8 241.2L174 230.8L160.6 221.2L148 212.4L136.2 204.5L125.4 197.6L115.8 191.6L107.5 186.7L100.6 182.8L95.3 179.9L91.6 178L89.7 177L89.5 176.9L91.1 177.6L94.5 179.1L99.7 181.3L106.7 184L115.4 187.2L125.7 190.9L137.6 194.8L150.9 198.9L165.5 203.2L181.1 207.4L197.8 211.6L215.2 215.7L233.2 219.6L251.6 223.2L270.1 226.5L288.6 229.4L306.9 232L324.7 234.2L341.8 236L358.1 237.4L373.3 238.4L387.3 239.1L399.9 239.5L410.9 239.7L420.3 239.6L428 239.5L433.7 239.2L437.6 239L439.5 238.9L439.4 238.9L437.4 239.1L433.4 239.7L427.5 240.5L419.9 241.8L410.5 243.5L399.6 245.8L387.1 248.6L373.4 251.9L358.6 255.8L342.8 260.2L326.2 265.1L309.1 270.6L291.6 276.6L274 282.9L256.4 289.6L239 296.6L222.1 303.7L205.8 310.9L190.2 318.1L175.7 325.2L162.3 332.1L150.1 338.5L139.2 344.5L129.9 350L122 354.7L115.8 358.6L111.2 361.6L108.2 363.6L106.9 364.5L107.2 364.3L109.1 362.9L112.5 360.2L117.2 356.3L123.4 351.1L130.7 344.6L139.1 336.9L148.5 328L158.7 318L169.6 307L180.9 294.9L192.7 282.1L204.6 268.6L216.6 254.4L228.5 239.9L240.2 225.1L251.5 210.3L262.3 195.5L272.6 181L282.1 167L290.9 153.6L298.8 140.9L305.8 129.3L311.9 118.8L317.1 109.5L321.3 101.7L324.5 95.3L326.8 90.6L328.2 87.7L328.7 86.5L328.4 87.1L327.5 89.5L325.8 93.8L323.7 99.9L321 107.7L317.9 117.3L314.6 128.4L311.1 141.1L307.4 155.1L303.7 170.3L300.1 186.6L296.6 203.8L293.3 221.6L290.2 239.9L287.5 258.5L285 277.2L282.9 295.7L281.2 313.9L279.9 331.5L278.9 348.3L278.3 364.1L278 378.9L277.9 392.3L278.1 404.2L278.4 414.5L278.8 423.2L279.3 430L279.7 434.9L280 437.9L280.2 438.9L280 438L279.6 435.1L278.7 430.3"/><path d="M251.6 439.1L251.6 435.5L251.4 429.9L251.1 422.5L250.5 413.3L249.6 402.5L248.4 390.1L246.9 376.4L244.9 361.4L242.5 345.4L239.6 328.5L236.4 311L232.7 293L228.6 274.7L224.2 256.4L219.4 238.3L214.5 220.5L209.3 203.2L204.1 186.7L198.9 171.2L193.7 156.7L188.7 143.4L184 131.6L179.7 121.2L175.8 112.4L172.5 105.2L169.9 99.8L168.1 96.1L167.1 94.2L167 94L167.9 95.5L169.8 98.7L172.7 103.5L176.8 109.8L181.9 117.5L188.1 126.5L195.4 136.6L203.7 147.7L213 159.7L223.1 172.3L234.1 185.5L245.7 199L258 212.7L270.7 226.5L283.7 240.1L297 253.4L310.2 266.3L323.3 278.6L336.1 290.2L348.4 301L360.1 310.9L371.1 319.8L381.1 327.6L390 334.4L397.7 340.1L404.1 344.5L409 347.9L412.4 350.1L414.2 351.2L414.3 351.3L412.8 350.4L409.5 348.6L404.4 345.9L397.7 342.5L389.4 338.4L379.4 333.7L368 328.6L355.2 323.2L341.1 317.5L326 311.6L309.8 305.8L292.9 299.9L275.4 294.2L257.5 288.7L239.4 283.5L221.3 278.7L203.4 274.2L185.9 270.2L169 266.6L153 263.5L137.9 260.8L124 258.6L111.5 256.9L100.4 255.5L91 254.5L83.2 253.8L77.4 253.4L73.4 253.2L71.3 253.1L71.2 253.1L73.1 253.1L77 253.1L82.7 252.9L90.3 252.4L99.6 251.8L110.6 250.8L123.1 249.4L137 247.7L152 245.6L168.1 243L185 239.9L202.6 236.5L220.6 232.6L238.8 228.3L257.1 223.7L275.2 218.8L292.9 213.7L310 208.4L326.4 203L341.8 197.6L356.1 192.3L369.2 187.3L380.9 182.5L391.1 178.1L399.7 174.2L406.7 171L411.9 168.4L415.4 166.6L417.1 165.7L417.2 165.6L415.5 166.6L412.1 168.7L407.2 171.8L400.8 176L393 181.3L384 187.7L373.9 195.2L362.7 203.7L350.8 213.1L338.1 223.5L325 234.6L311.6 246.4L297.9 258.9L284.3 271.7L270.9 284.9L257.7 298.2L245 311.6L232.9 324.7L221.4 337.6L210.8 350L201.1 361.7L192.4 372.6L184.7 382.6L178.1 391.5L172.7 399.1L168.3 405.4L165.1 410.2L163.1 413.5L162.1 415.1L162.1 415.1L163.1 413.3L165 409.8L167.7 404.6L171.1 397.7L175.2 389.2L179.8 379L184.8 367.4L190.2 354.4L195.8 340.2L201.5 324.9L207.3 308.6L212.9 291.6L218.5 274L223.8 256.1L228.8 237.9L233.5 219.8L237.7 201.8L241.6 184.4L245 167.5L247.9 151.5L250.4 136.6L252.4 122.8L254.1 110.3L255.3 99.4L256.2 90.1L256.7 82.6L257.1 76.9L257.2 73.1L257.3 71.2L257.3 71.3L257.3 73.4L257.4 77.4L257.7 83.4L258.2 91.1L259 100.6L260.1 111.7L261.6 124.3L263.5 138.3L265.8 153.4L268.6 169.6L271.8 186.6L275.5 204.1L279.5 222.1L284 240.4L288.8 258.6L293.9 276.6L299.2 294.2L304.6 311.2L310.1 327.5L315.6 342.7L321 356.9L326.2 369.8L331 381.3L335.4 391.3L339.3 399.8L342.6 406.5L345.1 411.6L346.9 414.9L347.8 416.5L347.7 416.3L346.6 414.5L344.4 411L341.1 405.9L336.8 399.4L331.3 391.6L324.7 382.5L317 372.3L308.4 361.1L298.7 349.2L288.2 336.6L276.9 323.5L264.8 310.2L252.3 296.6L239.2 283.1L225.9 269.8L212.5 256.8L199 244.3L185.8 232.3L172.9 221.1L160.5 210.6L148.7 201.1L137.8 192.6L127.9 185.1L119.1 178.7L111.5 173.4L105.3 169.3L100.6 166.2L97.5 164.3L96 163.4L96.2 163.5L98.2 164.5L101.8 166.5L107.2 169.2L114.3 172.7L123.1 176.7L133.4 181.3L145.2 186.3L158.3 191.6L172.7 197.1L188.2 202.7L204.6 208.3L221.7 213.8L239.4 219.1L257.4 224.3L275.7 229.1L293.8 233.6L311.7 237.7L329.2 241.3L346 244.5L361.9 247.3L376.8 249.6L390.5 251.5L402.8 253L413.6 254L422.7 254.8L430.1 255.3L435.6 255.6L439.2 255.7L440.9 255.7L440.6 255.7L438.3 255.8L434.1 255.9L428 256.3L420.1 256.9L410.4 257.8L399.1 259L386.4 260.7L372.3 262.7L357.1 265.2L340.9 268.2L323.9 271.6L306.3 275.4L288.3 279.7L270.1 284.3L251.9 289.3L234 294.6L216.5 300L199.6 305.6L183.5 311.3L168.3 316.9L154.3 322.4L141.6 327.6L130.3 332.5L120.5 337L112.2 340.9L105.7 344.2L100.8 346.7L97.7 348.4L96.3 349.1L96.6 349L98.6 347.7L102.2 345.4L107.3 342L113.9 337.5L121.9 331.8L131 325.1L141.3 317.2L152.4 308.3L164.4 298.5L176.9 287.8L189.9 276.3L203.2 264.1L216.6 251.3L230 238.2L243.2 224.7L256.1 211.2L268.4 197.6L280.2 184.3L291.3 171.3L301.5 158.9L310.8 147.1L319.2 136.2L326.5 126.4L332.7 117.6L337.8 110.1L341.8 104.1L344.7 99.5L346.5 96.5L347.3 95.2L347.1 95.6L346 97.7L344 101.5L341.2 107.1L337.7 114.4L333.7 123.4L329.2 133.9L324.3 145.8L319.1 159.1L313.7 173.7L308.2 189.3L302.8 205.8L297.4 223.1L292.2 240.8L287.3 258.9L282.6 277.2L278.3 295.4L274.5 313.3L271 330.7L268 347.5L265.4 363.3L263.2 378.1L261.5 391.7L260.2 403.9L259.2 414.5L258.5 423.5L258.1 430.7L257.9 436L257.9 439.5L257.9 440.9L257.8 440.4L257.8 438"/><path d="M251.2 439.2L251.2 435.3L251 429.5L250.7 421.8L250.1 412.5L249.3 401.4L248.1 388.9L246.5 375L244.6 359.9L242.2 343.8L239.4 326.8L236.2 309.2L232.6 291.2L228.6 272.9L224.3 254.5L219.7 236.4L214.8 218.6L209.8 201.3L204.7 184.9L199.6 169.3L194.5 154.9L189.7 141.6L185.1 129.8L180.9 119.5L177.2 110.7L174 103.6L171.5 98.2L169.7 94.6L168.7 92.7L168.7 92.5L169.6 94.1L171.4 97.4L174.4 102.2L178.3 108.6L183.4 116.4L189.5 125.4L196.6 135.7L204.8 146.9L213.8 159L223.8 171.8L234.5 185.1L246 198.8L258 212.7L270.5 226.7L283.3 240.5L296.3 254.1L309.3 267.2L322.2 279.7L334.8 291.6L346.9 302.7L358.5 312.8L369.3 322L379.2 330.1L388.1 337.1L395.7 343L402.1 347.7L407.1 351.2L410.6 353.6L412.5 354.9L412.7 355L411.3 354.2L408.2 352.3L403.4 349.6L396.9 346.1L388.8 341.9L379.2 337.1L368 331.8L355.5 326L341.7 320L326.8 313.8L311 307.5L294.3 301.3L277 295.1L259.3 289.1L241.4 283.4L223.4 278L205.6 273L188.1 268.4L171.3 264.3L155.2 260.6L140 257.4L126 254.8L113.2 252.6L101.9 250.8L92.2 249.5L84.2 248.5L78 247.9L73.7 247.5L71.2 247.3L70.8 247.3L72.3 247.3L75.7 247.4L81.1 247.4L88.3 247.3L97.3 246.9L107.9 246.4L120.1 245.5L133.7 244.4L148.6 242.8L164.5 240.9L181.3 238.5L198.9 235.8L216.9 232.7L235.3 229.2L253.7 225.3L272 221.1L290 216.7L307.5 212.1L324.3 207.4L340.2 202.6L355 197.8L368.6 193.2L380.9 188.8L391.7 184.7L400.9 181.1L408.5 177.9L414.4 175.4L418.5 173.5L420.8 172.4L421.4 172.1L420.2 172.7L417.3 174.3L412.8 176.8L406.7 180.4L399.2 185.1L390.3 190.7L380.2 197.4L369 205.1L356.9 213.7L344.1 223.2L330.6 233.4L316.8 244.4L302.7 256L288.4 268.1L274.3 280.5L260.4 293.2L246.9 305.9L233.9 318.6L221.6 331L210.1 343.1L199.5 354.6L189.8 365.4L181.2 375.3L173.7 384.3L167.4 392.2L162.3 398.7L158.4 404L155.6 407.8L154.1 410L153.6 410.7L154.3 409.7L155.9 407L158.5 402.7L162 396.7L166.2 389.1L171.1 379.9L176.5 369.2L182.4 357.1L188.6 343.8L195.1 329.3L201.7 313.8L208.3 297.4L214.9 280.4L221.3 262.9L227.5 245.1L233.3 227.3L238.8 209.5L243.9 192.1L248.5 175.1L252.6 158.9L256.2 143.6L259.3 129.3L261.9 116.3L264 104.7L265.7 94.6L266.9 86.2L267.8 79.6L268.3 74.8L268.6 71.9L268.6 70.9L268.6 72L268.5 74.9L268.3 79.8L268.3 86.6L268.4 95.2L268.6 105.4L269.2 117.3L270 130.6L271.1 145.2L272.6 160.9L274.5 177.6L276.8 195L279.4 213L282.5 231.3L285.9 249.8L289.6 268.3L293.6 286.5L297.8 304.2L302.1 321.3L306.6 337.5L311 352.7L315.3 366.7L319.5 379.4L323.5 390.7L327 400.4L330.2 408.4L332.7 414.8L334.7 419.4L335.9 422.2L336.4 423.2L336 422.4L334.7 419.9L332.5 415.7L329.3 409.9L325.1 402.6L319.8 393.9L313.6 384L306.4 372.9L298.3 360.9L289.3 348L279.5 334.5L268.9 320.5L257.8 306.1L246.1 291.7L234 277.3L221.7 263L209.3 249.1L196.9 235.8L184.6 223L172.7 211L161.3 199.9L150.5 189.8L140.6 180.7L131.5 172.8L123.5 166L116.7 160.5L111.2 156.1L107.2 153L104.6 151.1L103.5 150.4L104.1 150.8L106.3 152.2L110.2 154.7L115.7 158.1L122.9 162.2L131.6 167.2L141.8 172.7L153.4 178.7L166.3 185.2L180.4 191.9L195.6 198.8L211.6 205.8L228.3 212.7L245.6 219.5L263.2 226.1L280.9 232.5L298.6 238.4L316 244L333 249L349.3 253.6L364.8 257.7L379.3 261.2L392.5 264.2L404.4 266.7L414.9 268.7L423.7 270.2L430.7 271.3L435.9 272L439.3 272.4L440.7 272.5L440.2 272.5L437.7 272.3L433.2 272.1L426.9 271.9L418.8 271.8L408.9 271.8L397.4 272L384.5 272.5L370.1 273.2L354.7 274.3L338.2 275.8L320.9 277.6L302.9 279.8L284.6 282.3L266 285.2L247.5 288.5L229.1 292L211.2 295.8L193.9 299.7L177.3 303.8L161.8 307.9L147.4 312L134.2 316L122.5 319.7L112.4 323.2L103.8 326.2L97 328.8L92 330.8L88.7 332.2L87.3 332.8L87.6 332.7L89.7 331.6L93.5 329.7L99 326.8L106 323L114.5 318.2L124.3 312.4L135.2 305.7L147.2 298L160.1 289.5L173.7 280.2L187.8 270.1L202.3 259.4L217 248.2L231.7 236.5L246.2 224.5L260.4 212.4L274.2 200.3L287.4 188.2L299.8 176.5L311.4 165.2L322 154.5L331.5 144.5L340 135.4L347.2 127.3L353.2 120.3L358 114.6L361.5 110.2L363.7 107.3L364.8 105.9L364.6 106.1L363.4 107.9L361.1 111.3L357.8 116.4L353.7 123L348.8 131.3L343.2 141L337 152.2L330.4 164.7L323.4 178.3L316.2 193.1L308.9 208.7L301.6 225.2L294.4 242.1L287.4 259.5L280.6 277.1L274.2 294.7L268.2 312.1L262.6 329.1L257.5 345.5L253 361.1L249.1 375.7L245.6 389.2L242.8 401.4L240.5 412.2L238.6 421.3L237.3 428.8L236.4 434.5L235.8 438.3L235.6 440.2L235.6 440.1"/><path d="M250.9 439.3L250.8 435.1L250.7 429L250.4 421.2L249.8 411.6L248.9 400.4L247.8 387.7L246.2 373.6L244.3 358.4L242 342.2L239.2 325.1L236.1 307.4L232.5 289.3L228.6 271L224.4 252.6L219.9 234.4L215.1 216.6L210.3 199.4L205.3 183L200.3 167.4L195.4 153L190.7 139.9L186.2 128.1L182.2 117.7L178.5 109L175.5 102L173 96.6L171.3 93L170.4 91.2L170.4 91.1L171.2 92.8L173.1 96.1L176 101L179.9 107.4L184.9 115.3L190.8 124.4L197.8 134.8L205.8 146.1L214.7 158.3L224.5 171.3L235 184.8L246.2 198.7L258 212.7L270.3 226.9L282.8 240.9L295.6 254.7L308.4 268.1L321 280.9L333.4 293L345.4 304.3L356.8 314.7L367.5 324.2L377.3 332.5L386.1 339.8L393.7 345.9L400.1 350.8L405.1 354.5L408.6 357L410.6 358.4L411 358.7L409.8 357.9L406.8 356.1L402.3 353.3L396 349.7L388.2 345.4L378.8 340.4L367.9 334.9L355.7 328.9L342.2 322.6L327.6 316.1L312 309.4L295.6 302.7L278.6 296.1L261.1 289.6L243.3 283.4L225.5 277.4L207.8 271.9L190.4 266.8L173.5 262.1L157.4 257.9L142.2 254.2L128 251.1L115.1 248.4L103.7 246.3L93.7 244.5L85.4 243.3L78.9 242.4L74.2 241.8L71.4 241.5L70.6 241.4L71.7 241.5L74.7 241.7L79.7 241.9L86.5 242L95.2 242L105.5 241.8L117.4 241.4L130.7 240.8L145.3 239.8L161.1 238.5L177.8 236.9L195.2 234.8L213.3 232.4L231.7 229.7L250.2 226.6L268.7 223.1L287 219.4L304.8 215.5L321.9 211.5L338.2 207.3L353.5 203.1L367.7 199L380.5 195L391.9 191.3L401.7 187.9L409.9 184.9L416.4 182.4L421.1 180.5L424.1 179.2L425.2 178.7L424.5 179.1L422.1 180.2L418 182.3L412.3 185.3L405 189.3L396.3 194.3L386.4 200.2L375.2 207L363.1 214.8L350.1 223.4L336.4 232.9L322.2 243L307.6 253.7L292.9 265L278.2 276.6L263.6 288.6L249.4 300.7L235.6 312.7L222.4 324.7L210 336.3L198.5 347.5L187.9 358.1L178.4 367.9L170.1 376.9L162.9 384.9L156.9 391.7L152.2 397.3L148.8 401.5L146.6 404.3L145.6 405.6L145.8 405.3L147.2 403.4L149.5 399.9L152.9 394.8L157.2 388.1L162.2 379.8L167.9 370.1L174.2 359L181 346.5L188.1 332.9L195.5 318.2L203 302.6L210.5 286.3L217.9 269.4L225.2 252.1L232.2 234.6L238.9 217.1L245.1 199.8L251 182.9L256.3 166.6L261 151L265.2 136.4L268.9 122.9L271.9 110.8L274.4 100L276.4 90.8L277.9 83.3L279 77.6L279.6 73.8L279.9 71.8L279.9 71.8L279.7 73.7L279.3 77.5L278.9 83.3L278.4 90.9L278 100.2L277.7 111.2L277.5 123.7L277.6 137.6L277.9 152.8L278.6 169L279.5 186.1L280.8 203.9L282.4 222.3L284.4 240.9L286.7 259.6L289.3 278.1L292.2 296.4L295.3 314.1L298.5 331.1L301.9 347.2L305.3 362.3L308.7 376.1L312 388.5L315 399.4L317.8 408.7L320.2 416.3L322.2 422.2L323.6 426.2L324.4 428.4L324.6 428.8L324 427.4L322.6 424.2L320.4 419.3L317.3 412.7L313.3 404.6L308.4 395.1L302.6 384.3L296 372.4L288.5 359.5L280.2 345.8L271.2 331.4L261.5 316.5L251.3 301.3L240.6 286L229.6 270.7L218.3 255.7L207 241L195.6 226.9L184.5 213.5L173.6 200.8L163.3 189.2L153.5 178.5L144.4 169L136.3 160.7L129.1 153.7L123.1 147.9L118.3 143.5L114.8 140.4L112.7 138.6L112.1 138.1L113 138.9L115.5 140.8L119.5 143.8L125.1 147.8L132.2 152.8L140.8 158.6L150.9 165.1L162.2 172.2L174.8 179.8L188.5 187.7L203.2 195.9L218.7 204.2L234.9 212.5L251.6 220.8L268.6 228.8L285.8 236.5L302.9 243.9L319.7 250.9L336.1 257.3L351.8 263.2L366.7 268.5L380.7 273.1L393.4 277.2L404.9 280.6L414.8 283.4L423.2 285.6L429.9 287.3L434.8 288.4L437.9 289L439 289.2L438.2 289.1L435.5 288.7L430.9 288L424.4 287.2L416.1 286.4L406.1 285.5L394.5 284.6L381.4 283.9L366.9 283.4L351.3 283L334.7 282.9L317.2 283.1L299.1 283.7L280.6 284.5L261.8 285.7L243 287.1L224.4 288.9L206.3 291L188.7 293.3L171.9 295.7L156.1 298.3L141.4 301L128 303.7L116 306.2L105.6 308.7L96.9 310.9L89.9 312.7L84.7 314.2L81.4 315.3L79.9 315.7L80.3 315.6L82.6 314.8L86.6 313.2L92.3 310.9L99.7 307.8L108.6 303.9L118.9 299.2L130.5 293.6L143.2 287.2L156.8 280.1L171.3 272.2L186.4 263.7L201.9 254.6L217.6 244.9L233.5 234.9L249.2 224.5L264.7 214L279.7 203.3L294.1 192.8L307.7 182.4L320.5 172.4L332.2 162.8L342.9 153.9L352.3 145.6L360.5 138.3L367.3 131.9L372.8 126.7L376.9 122.6L379.5 119.8L380.9 118.4L380.8 118.5L379.5 120L377 123L373.3 127.5L368.6 133.5L362.8 140.9L356.3 149.8L349 160.1L341.1 171.6L332.7 184.2L323.9 197.9L314.9 212.6L305.8 227.9L296.7 243.9L287.7 260.3L278.9 277L270.4 293.7L262.4 310.4L254.8 326.7L247.8 342.5L241.4 357.6L235.6 371.8L230.5 385.1L226.1 397.1L222.4 407.7L219.4 416.9L217 424.5L215.3 430.4L214.2 434.4L213.6 436.7"/><path d="M250.6 439.3L250.5 434.9L250.4 428.6L250 420.5L249.5 410.6L248.6 399.2L247.4 386.4L245.9 372.2L244 356.8L241.7 340.5L239 323.4L236 305.6L232.5 287.4L228.7 269.1L224.5 250.7L220.1 232.5L215.5 214.7L210.7 197.5L205.9 181.1L201 165.6L196.3 151.2L191.7 138.1L187.4 126.3L183.4 116L179.9 107.4L176.9 100.4L174.6 95.1L172.9 91.5L172.1 89.7L172 89.7L172.9 91.4L174.8 94.8L177.6 99.8L181.5 106.3L186.3 114.2L192.2 123.5L199.1 133.9L206.9 145.4L215.6 157.7L225.2 170.8L235.5 184.5L246.5 198.5L258.1 212.8L270.1 227.1L282.4 241.4L294.9 255.4L307.5 268.9L319.9 282L332.1 294.3L343.9 305.9L355.2 316.6L365.7 326.3L375.4 334.9L384.1 342.4L391.7 348.7L398 353.8L403.1 357.7L406.6 360.4L408.7 361.9L409.2 362.3L408.1 361.5L405.4 359.7L401 357L395 353.3L387.4 348.9L378.3 343.8L367.7 338L355.8 331.8L342.6 325.2L328.3 318.3L313 311.3L296.8 304.2L280 297.1L262.8 290.2L245.2 283.5L227.5 277L209.9 270.9L192.6 265.3L175.8 260.1L159.7 255.4L144.4 251.2L130.2 247.5L117.2 244.4L105.5 241.8L95.3 239.8L86.8 238.2L80 237L75 236.2L71.8 235.8L70.6 235.6L71.4 235.7L74 235.9L78.6 236.3L85.1 236.6L93.3 236.9L103.3 237.1L114.8 237.2L127.9 237L142.2 236.6L157.8 235.9L174.3 234.9L191.7 233.6L209.7 231.9L228.1 229.9L246.7 227.5L265.4 224.8L283.8 221.9L301.9 218.7L319.3 215.3L336 211.7L351.8 208.1L366.4 204.5L379.8 201L391.7 197.7L402.1 194.6L410.9 191.8L418 189.4L423.3 187.5L426.8 186.2L428.5 185.6L428.4 185.6L426.5 186.5L422.8 188.1L417.5 190.6L410.5 194L402.1 198.3L392.3 203.5L381.3 209.6L369.1 216.5L356.1 224.3L342.2 232.8L327.7 242.1L312.8 252L297.7 262.4L282.4 273.2L267.2 284.4L252.3 295.8L237.8 307.2L223.9 318.6L210.6 329.7L198.2 340.5L186.8 350.8L176.4 360.5L167.1 369.4L159.1 377.4L152.3 384.4L146.8 390.2L142.6 394.8L139.7 398L138.2 399.9L137.9 400.2L138.8 399.1L140.9 396.3L144.1 392.1L148.2 386.3L153.3 378.9L159.3 370.1L165.9 359.9L173.1 348.4L180.7 335.7L188.8 321.9L197 307.1L205.4 291.5L213.8 275.3L222.1 258.6L230.2 241.6L238 224.5L245.4 207.5L252.4 190.7L258.9 174.4L264.8 158.8L270.1 144L274.9 130.2L278.9 117.5L282.4 106.2L285.2 96.4L287.5 88.1L289.1 81.6L290.3 76.8L290.9 73.9L291.1 72.8L291 73.7L290.5 76.5L289.8 81.2L288.9 87.8L287.9 96.1L286.9 106.2L286 117.8L285.1 130.9L284.4 145.4L283.8 161L283.5 177.7L283.5 195.2L283.8 213.3L284.3 231.8L285.2 250.6L286.4 269.4L287.9 288L289.7 306.2L291.7 323.8L293.9 340.7L296.2 356.6L298.7 371.3L301.1 384.8L303.5 396.9L305.7 407.4L307.8 416.2L309.6 423.3L311 428.6L311.9 432.1L312.4 433.6L312.3 433.4L311.6 431.2L310.2 427.3L308.1 421.6L305.2 414.3L301.5 405.5L297.1 395.2L291.8 383.6L285.8 370.8L279 357.1L271.6 342.5L263.4 327.3L254.7 311.7L245.5 295.7L235.9 279.6L225.9 263.6L215.8 247.8L205.6 232.5L195.4 217.8L185.3 203.7L175.6 190.6L166.2 178.4L157.5 167.4L149.4 157.6L142.2 149L135.8 141.8L130.6 136L126.4 131.5L123.5 128.5L121.9 127L121.7 126.7L122.9 127.9L125.6 130.3L129.7 133.9L135.3 138.6L142.3 144.4L150.7 151L160.5 158.5L171.5 166.6L183.6 175.4L196.8 184.5L211 193.9L225.9 203.5L241.4 213.2L257.5 222.8L273.8 232.2L290.2 241.3L306.6 250L322.7 258.3L338.4 266L353.4 273.1L367.7 279.6L381 285.3L393.2 290.3L404 294.6L413.5 298.2L421.4 301L427.7 303.1L432.2 304.6L434.9 305.4L435.8 305.6L434.7 305.4L431.8 304.6L427.1 303.5L420.5 302.1L412.1 300.5L402 298.7L390.3 296.8L377.2 294.8L362.7 292.9L347.1 291.2L330.4 289.6L313 288.2L294.8 287L276.3 286.1L257.5 285.5L238.7 285.3L220 285.3L201.8 285.6L184.1 286.2L167.2 287.1L151.2 288.2L136.4 289.4L122.9 290.8L110.8 292.2L100.3 293.6L91.5 294.9L84.4 296.1L79.2 297.1L75.8 297.7L74.4 298.1L74.8 297.9L77.2 297.3L81.3 296.2L87.3 294.5L94.9 292.2L104.2 289.2L114.9 285.5L127 281.1L140.3 276.1L154.6 270.4L169.8 264L185.6 257.1L202 249.6L218.7 241.7L235.5 233.4L252.2 224.7L268.7 215.8L284.8 206.8L300.2 197.9L314.9 189L328.7 180.3L341.5 172.1L353.1 164.3L363.5 157.1L372.4 150.6L380 144.9L386.1 140.2L390.7 136.5L393.8 134L395.4 132.6L395.5 132.5L394.2 133.7L391.5 136.3L387.4 140.3L382.2 145.6L375.8 152.2L368.4 160.2L360.1 169.4L351 179.8L341.3 191.3L331.2 203.8L320.6 217.2L309.8 231.4L298.9 246.2L288.1 261.4L277.5 276.9L267.1 292.6L257.1 308.2L247.6 323.6L238.7 338.5L230.5 352.9L223 366.6L216.3 379.3L210.4 390.9L205.3 401.3L201.1 410.3L197.7 417.8L195.1 423.8L193.4 428"/></svg>